<svg width="48" height="48" viewBox="0 0 48 48" fill="none" xmlns="http://www.w3.org/2000/svg">
<path d="M32.821 47.737C40.8048 47.737 47.277 41.2648 47.277 33.281C47.277 25.2971 40.8048 18.825 32.821 18.825C24.8372 18.825 18.365 25.2971 18.365 33.281C18.365 41.2648 24.8372 47.737 32.821 47.737Z" fill="#4FBF9F"/>
<path d="M0.664001 22.5859V33.9449C0.664001 34.4486 0.76321 34.9474 0.955962 35.4127C1.14871 35.8781 1.43123 36.3009 1.78739 36.657C2.14355 37.0132 2.56638 37.2957 3.03172 37.4885C3.49706 37.6812 3.99582 37.7804 4.4995 37.7804C5.00319 37.7804 5.50194 37.6812 5.96728 37.4885C6.43263 37.2957 6.85545 37.0132 7.21161 36.657C7.56777 36.3009 7.85029 35.8781 8.04304 35.4127C8.23579 34.9474 8.335 34.4486 8.335 33.9449V22.5859H0.664001Z" fill="white"/>
<path d="M4.50001 38.4441C3.30791 38.4396 2.16592 37.9641 1.32297 37.1212C0.480029 36.2782 0.00448498 35.1362 6.83958e-06 33.9441V22.5861C-0.000390326 22.4988 0.0165134 22.4123 0.0497419 22.3315C0.0829703 22.2508 0.131865 22.1775 0.193602 22.1157C0.25534 22.054 0.328696 22.0051 0.409436 21.9719C0.490175 21.9386 0.576698 21.9217 0.664007 21.9221H8.33501C8.42232 21.9217 8.50884 21.9386 8.58958 21.9719C8.67032 22.0051 8.74367 22.054 8.80541 22.1157C8.86715 22.1775 8.91604 22.2508 8.94927 22.3315C8.9825 22.4123 8.9994 22.4988 8.99901 22.5861V33.9451C9.00286 34.537 8.88912 35.1238 8.66439 35.6714C8.43966 36.2189 8.10841 36.7164 7.68987 37.135C7.27133 37.5535 6.77383 37.8848 6.22625 38.1095C5.67866 38.3342 5.0919 38.448 4.50001 38.4441ZM1.32801 23.2501V33.9451C1.33558 34.784 1.67223 35.5863 2.26549 36.1793C2.85875 36.7724 3.66117 37.1088 4.50001 37.1161C5.33901 37.1088 6.14158 36.7723 6.73487 36.179C7.32816 35.5857 7.6647 34.7831 7.67201 33.9441V23.2501H1.32801Z" fill="#193651"/>
<path d="M26.921 1.19507H8.33401V33.9451C8.33747 34.4497 8.24063 34.9499 8.04913 35.4167C7.85762 35.8836 7.57527 36.3077 7.21847 36.6645C6.86166 37.0213 6.43752 37.3037 5.97068 37.4952C5.50384 37.6867 5.00359 37.7835 4.49901 37.7801H31.346C31.8503 37.783 32.3501 37.6858 32.8165 37.494C33.2828 37.3023 33.7065 37.0198 34.0629 36.6631C34.4193 36.3063 34.7012 35.8824 34.8925 35.4158C35.0838 34.9492 35.1805 34.4493 35.177 33.9451V9.53107L26.921 1.19507Z" fill="#F16051"/>
<path d="M35.696 9.01313L27.363 0.754128C27.3131 0.683905 27.2466 0.627026 27.1696 0.58849C27.0925 0.549955 27.0071 0.530944 26.921 0.533128H8.334C8.24669 0.532731 8.16017 0.549635 8.07943 0.582863C7.99869 0.616092 7.92534 0.664986 7.8636 0.726724C7.80186 0.788461 7.75297 0.861818 7.71974 0.942557C7.68651 1.0233 7.6696 1.10982 7.67 1.19713V33.9451C7.66164 34.7838 7.32437 35.5856 6.73076 36.1781C6.13716 36.7706 5.33467 37.1064 4.496 37.1131C4.3199 37.1131 4.15101 37.1831 4.02648 37.3076C3.90196 37.4321 3.832 37.601 3.832 37.7771C3.832 37.9532 3.90196 38.1221 4.02648 38.2466C4.15101 38.3712 4.3199 38.4411 4.496 38.4411H31.346C32.5381 38.4366 33.6801 37.9611 34.523 37.1182C35.366 36.2752 35.8415 35.1332 35.846 33.9411V9.53113C35.8793 9.44006 35.8828 9.34073 35.8558 9.24758C35.8288 9.15443 35.7728 9.0723 35.696 9.01313ZM34.516 33.9431C34.5082 34.7814 34.1717 35.5832 33.5789 36.176C32.9861 36.7688 32.1843 37.1053 31.346 37.1131H7.746C8.15442 36.6946 8.47532 36.1989 8.68994 35.655C8.90457 35.111 9.00861 34.5298 8.996 33.9451V1.93413H26.626L34.518 9.82613L34.516 33.9431Z" fill="#193651"/>
<path d="M11.137 4V33.945C11.1491 34.3152 11.1243 34.6857 11.063 35.051H31.42C31.6999 35.0474 31.9684 34.9396 32.1729 34.7485C32.3775 34.5575 32.5034 34.297 32.526 34.018V9.532L26.994 4H11.137Z" fill="white"/>
<path d="M26.921 1.19507V7.39507C26.9206 7.66636 26.9738 7.93506 27.0774 8.18578C27.181 8.43649 27.3331 8.66429 27.525 8.85612C27.7168 9.04796 27.9446 9.20005 28.1953 9.30368C28.446 9.40732 28.7147 9.46046 28.986 9.46007H35.186L26.921 1.19507Z" fill="white"/>
<path d="M35.182 10.195H28.982C28.6234 10.1958 28.2682 10.1258 27.9367 9.9889C27.6053 9.85204 27.3041 9.65105 27.0506 9.39749C26.797 9.14392 26.596 8.84276 26.4591 8.5113C26.3223 8.17985 26.2522 7.82463 26.253 7.46603V1.19703C26.252 1.0542 26.2941 0.914395 26.3738 0.795914C26.4536 0.677432 26.5673 0.585803 26.7 0.533027C27 0.459027 27.29 0.459027 27.438 0.681027L35.625 8.86803C35.7159 8.93768 35.7901 9.02684 35.842 9.12895C35.8939 9.23106 35.9223 9.34351 35.925 9.45803C35.9304 9.55675 35.9149 9.6555 35.8794 9.74778C35.8438 9.84005 35.7892 9.92376 35.719 9.99339C35.6488 10.063 35.5647 10.117 35.4721 10.1517C35.3796 10.1865 35.2807 10.2013 35.182 10.195ZM27.582 2.89503V7.46603C27.582 7.83733 27.7295 8.19343 27.9921 8.45598C28.2546 8.71853 28.6107 8.86603 28.982 8.86603H33.555L27.582 2.89503Z" fill="#193651"/>
<path d="M18.808 28.3391H13.276V29.7401H18.808V28.3391Z" fill="#193651"/>
<path d="M21.168 24.4299H13.276V25.8309H21.168V24.4299Z" fill="#193651"/>
<path d="M25.225 20.521H13.276V21.922H25.225V20.521Z" fill="#193651"/>
<path d="M30.24 16.6121H13.276V18.0131H30.24V16.6121Z" fill="#193651"/>
<path d="M30.24 12.7031H13.276V14.1041H30.24V12.7031Z" fill="#193651"/>
<path d="M14.677 8.79395H13.276V10.1949H14.677V8.79395Z" fill="#193651"/>
<path d="M17.406 8.79395H16.005V10.1949H17.406V8.79395Z" fill="#193651"/>
<path d="M20.209 8.79395H18.808V10.1949H20.209V8.79395Z" fill="#193651"/>
<path d="M22.938 8.79395H21.537V10.1949H22.938V8.79395Z" fill="#193651"/>
<path d="M32.822 44.0509C38.7696 44.0509 43.591 39.2295 43.591 33.2819C43.591 27.3344 38.7696 22.5129 32.822 22.5129C26.8745 22.5129 22.053 27.3344 22.053 33.2819C22.053 39.2295 26.8745 44.0509 32.822 44.0509Z" fill="#FDBF5E"/>
<path d="M32.822 44.7869C30.5463 44.7869 28.3218 44.1121 26.4296 42.8478C24.5375 41.5835 23.0627 39.7865 22.1919 37.6841C21.321 35.5816 21.0931 33.2681 21.5371 31.0362C21.9811 28.8043 23.0769 26.7541 24.686 25.1449C26.2952 23.5358 28.3454 22.44 30.5773 21.996C32.8093 21.552 35.1227 21.7799 37.2252 22.6508C39.3276 23.5216 41.1246 24.9964 42.3889 26.8885C43.6532 28.7807 44.328 31.0052 44.328 33.2809C44.324 36.3313 43.1105 39.2556 40.9536 41.4125C38.7967 43.5694 35.8724 44.7829 32.822 44.7869ZM32.822 23.2499C30.8186 23.2363 28.8564 23.8188 27.1849 24.9233C25.5135 26.0278 24.2083 27.6045 23.4353 29.4528C22.6623 31.3012 22.4565 33.3376 22.844 35.3032C23.2315 37.2688 24.1948 39.0748 25.6115 40.4915C27.0281 41.9081 28.8341 42.8714 30.7997 43.2589C32.7653 43.6465 34.8018 43.4406 36.6501 42.6677C38.4984 41.8947 40.0751 40.5895 41.1796 38.918C42.2842 37.2465 42.8667 35.2843 42.853 33.2809C42.8298 30.6277 41.7655 28.0898 39.8893 26.2136C38.0132 24.3374 35.4752 23.2731 32.822 23.2499Z" fill="#193651"/>
<path d="M32.822 41.321C31.2318 41.321 29.6773 40.8494 28.3551 39.9659C27.0329 39.0824 26.0024 37.8267 25.3939 36.3575C24.7854 34.8884 24.6263 33.2717 24.9366 31.7121C25.2469 30.1524 26.0127 28.7198 27.1372 27.5955C28.2617 26.4711 29.6944 25.7055 31.2541 25.3953C32.8138 25.0852 34.4304 25.2446 35.8995 25.8533C37.3686 26.4619 38.6242 27.4926 39.5075 28.8149C40.3909 30.1372 40.8622 31.6918 40.862 33.282C40.857 35.4127 40.0083 37.4547 38.5016 38.9612C36.9948 40.4678 34.9527 41.3162 32.822 41.321Z" fill="white"/>
<path d="M36.584 29.52L31.937 34.093L29.651 31.88L27.951 33.65L31.934 37.633L38.277 31.216L36.584 29.52Z" fill="#E1E6E9"/>
</svg>
