<svg width="37" height="39" viewBox="0 0 37 39" fill="none" xmlns="http://www.w3.org/2000/svg">
<path d="M36.364 11.678H0.577V37.479H36.364V11.678Z" fill="#27A2DE"/>
<path d="M34.056 13.9871H2.886V35.1711H27.071L34.056 28.1871V13.9871Z" fill="white"/>
<path d="M29.726 28.187C29.3771 28.1861 29.0314 28.2541 28.7089 28.3872C28.3864 28.5203 28.0933 28.7159 27.8466 28.9626C27.5999 29.2093 27.4043 29.5024 27.2712 29.8249C27.1381 30.1475 27.0701 30.4931 27.071 30.842V35.171L34.055 28.187H29.726Z" fill="#D3D7DA"/>
<path d="M36.364 4.86694H0.577V11.6779H36.364V4.86694Z" fill="white"/>
<path d="M30.938 1.5769C30.5719 1.58081 30.2219 1.72798 29.963 1.98688C29.7041 2.24577 29.5569 2.59579 29.553 2.9619V6.5409C29.553 6.90836 29.699 7.26077 29.9588 7.5206C30.2186 7.78043 30.571 7.9264 30.9385 7.9264C31.3059 7.9264 31.6584 7.78043 31.9182 7.5206C32.178 7.26077 32.324 6.90836 32.324 6.5409V2.9619C32.3201 2.59562 32.1728 2.24545 31.9137 1.98653C31.6546 1.7276 31.3043 1.58055 30.938 1.5769Z" fill="white"/>
<path d="M22.626 1.6919C22.2779 1.69139 21.9424 1.82165 21.6859 2.05688C21.4294 2.2921 21.2706 2.61511 21.241 2.9619V6.5409C21.232 6.73067 21.2608 6.92033 21.3258 7.09885C21.3908 7.27737 21.4907 7.44119 21.6195 7.58077C21.7484 7.72035 21.9038 7.83291 22.0766 7.9119C22.2494 7.9909 22.4361 8.03474 22.626 8.0409C22.9921 8.03699 23.3421 7.88982 23.601 7.63092C23.8599 7.37203 24.0071 7.02201 24.011 6.6559V3.0769C24.0071 2.71078 23.8599 2.36076 23.601 2.10187C23.3421 1.84297 22.9921 1.6958 22.626 1.6919Z" fill="white"/>
<path d="M6.002 1.5769C5.63588 1.58081 5.28586 1.72798 5.02697 1.98688C4.76807 2.24577 4.6209 2.59579 4.617 2.9619V6.5409C4.617 6.90836 4.76297 7.26077 5.0228 7.5206C5.28263 7.78043 5.63504 7.9264 6.0025 7.9264C6.36996 7.9264 6.72237 7.78043 6.9822 7.5206C7.24203 7.26077 7.388 6.90836 7.388 6.5409V2.9619C7.38409 2.59562 7.23679 2.24545 6.97767 1.98653C6.71856 1.7276 6.36829 1.58055 6.002 1.5769Z" fill="white"/>
<path d="M14.314 1.5769C13.9479 1.58081 13.5979 1.72798 13.339 1.98688C13.0801 2.24577 12.9329 2.59579 12.929 2.9619V6.5409C12.929 6.90836 13.075 7.26077 13.3348 7.5206C13.5946 7.78043 13.947 7.9264 14.3145 7.9264C14.682 7.9264 15.0344 7.78043 15.2942 7.5206C15.554 7.26077 15.7 6.90836 15.7 6.5409V2.9619C15.6961 2.59562 15.5488 2.24545 15.2897 1.98653C15.0306 1.7276 14.6803 1.58055 14.314 1.5769Z" fill="white"/>
<path d="M36.364 4.28987H32.9V2.96287C32.8884 2.45005 32.6766 1.96214 32.3098 1.60355C31.943 1.24495 31.4504 1.04417 30.9375 1.04417C30.4246 1.04417 29.932 1.24495 29.5652 1.60355C29.1984 1.96214 28.9866 2.45005 28.975 2.96287V4.28987H24.589V3.07787C24.5907 2.56579 24.3924 2.07328 24.0363 1.70531C23.6802 1.33734 23.1944 1.12302 22.6825 1.10802C22.1707 1.09302 21.6732 1.27854 21.2961 1.62502C20.9191 1.97151 20.6922 2.45157 20.664 2.96287V4.28987H16.277V2.96287C16.2829 2.70142 16.2365 2.44143 16.1405 2.19817C16.0446 1.9549 15.9009 1.73326 15.7181 1.54627C15.5353 1.35928 15.317 1.2107 15.0759 1.10926C14.8349 1.00782 14.576 0.955566 14.3145 0.955566C14.053 0.955566 13.7941 1.00782 13.5531 1.10926C13.312 1.2107 13.0937 1.35928 12.9109 1.54627C12.7281 1.73326 12.5844 1.9549 12.4885 2.19817C12.3925 2.44143 12.3461 2.70142 12.352 2.96287V4.28987H7.966V2.96287C7.95442 2.45005 7.74258 1.96214 7.3758 1.60355C7.00902 1.24495 6.51645 1.04417 6.0035 1.04417C5.49055 1.04417 4.99798 1.24495 4.6312 1.60355C4.26442 1.96214 4.05258 2.45005 4.041 2.96287V4.28987H0.577001C0.500011 4.2852 0.422906 4.29692 0.350785 4.32427C0.278663 4.35161 0.213168 4.39396 0.158627 4.4485C0.104087 4.50304 0.0617451 4.56853 0.0344001 4.64065C0.00705514 4.71277 -0.00466975 4.78988 5.95581e-07 4.86687V37.4799C-0.00466975 37.5569 0.00705514 37.634 0.0344001 37.7061C0.0617451 37.7782 0.104087 37.8437 0.158627 37.8982C0.213168 37.9528 0.278663 37.9951 0.350785 38.0225C0.422906 38.0498 0.500011 38.0615 0.577001 38.0569H36.364C36.441 38.0615 36.5181 38.0498 36.5902 38.0225C36.6623 37.9951 36.7278 37.9528 36.7824 37.8982C36.8369 37.8437 36.8793 37.7782 36.9066 37.7061C36.9339 37.634 36.9457 37.5569 36.941 37.4799V4.86687C36.9457 4.78988 36.9339 4.71277 36.9066 4.64065C36.8793 4.56853 36.8369 4.50304 36.7824 4.4485C36.7278 4.39396 36.6623 4.35161 36.5902 4.32427C36.5181 4.29692 36.441 4.2852 36.364 4.28987ZM30.131 2.96287C30.131 2.74857 30.2161 2.54306 30.3677 2.39153C30.5192 2.24 30.7247 2.15487 30.939 2.15487C31.1533 2.15487 31.3588 2.24 31.5103 2.39153C31.6619 2.54306 31.747 2.74857 31.747 2.96287V6.54087C31.747 6.75516 31.6619 6.96068 31.5103 7.11221C31.3588 7.26374 31.1533 7.34887 30.939 7.34887C30.7247 7.34887 30.5192 7.26374 30.3677 7.11221C30.2161 6.96068 30.131 6.75516 30.131 6.54087V2.96287ZM21.819 2.96287C21.839 2.76573 21.9341 2.58384 22.0845 2.45484C22.2349 2.32584 22.4291 2.25962 22.627 2.26987C22.7338 2.26726 22.8401 2.28638 22.9393 2.32607C23.0385 2.36575 23.1286 2.42517 23.2041 2.50073C23.2797 2.57628 23.3391 2.6664 23.3788 2.76561C23.4185 2.86481 23.4376 2.97105 23.435 3.07787V6.65687C23.4376 6.76369 23.4185 6.86992 23.3788 6.96913C23.3391 7.06834 23.2797 7.15846 23.2041 7.23401C23.1286 7.30957 23.0385 7.36899 22.9393 7.40867C22.8401 7.44836 22.7338 7.46747 22.627 7.46487C22.5127 7.45883 22.4008 7.42993 22.2979 7.37989C22.195 7.32986 22.1032 7.25969 22.0278 7.17355C21.9525 7.0874 21.8952 6.98703 21.8593 6.87836C21.8235 6.76969 21.8097 6.65493 21.819 6.54087V2.96287ZM13.507 2.96287C13.507 2.74857 13.5921 2.54306 13.7437 2.39153C13.8952 2.24 14.1007 2.15487 14.315 2.15487C14.5293 2.15487 14.7348 2.24 14.8863 2.39153C15.0379 2.54306 15.123 2.74857 15.123 2.96287V6.54087C15.123 6.75516 15.0379 6.96068 14.8863 7.11221C14.7348 7.26374 14.5293 7.34887 14.315 7.34887C14.1007 7.34887 13.8952 7.26374 13.7437 7.11221C13.5921 6.96068 13.507 6.75516 13.507 6.54087V2.96287ZM5.195 2.96287C5.195 2.74857 5.28013 2.54306 5.43166 2.39153C5.58319 2.24 5.78871 2.15487 6.003 2.15487C6.2173 2.15487 6.42281 2.24 6.57434 2.39153C6.72587 2.54306 6.811 2.74857 6.811 2.96287V6.54087C6.811 6.75516 6.72587 6.96068 6.57434 7.11221C6.42281 7.26374 6.2173 7.34887 6.003 7.34887C5.78871 7.34887 5.58319 7.26374 5.43166 7.11221C5.28013 6.96068 5.195 6.75516 5.195 6.54087V2.96287ZM1.154 5.44487H4.04V6.54487C4.05158 7.05769 4.26342 7.5456 4.6302 7.90419C4.99698 8.26279 5.48955 8.46357 6.0025 8.46357C6.51545 8.46357 7.00802 8.26279 7.3748 7.90419C7.74158 7.5456 7.95342 7.05769 7.965 6.54487V5.44487H12.352V6.54487C12.3461 6.80632 12.3925 7.06631 12.4885 7.30957C12.5844 7.55284 12.7281 7.77448 12.9109 7.96147C13.0937 8.14846 13.312 8.29704 13.5531 8.39848C13.7941 8.49992 14.053 8.55217 14.3145 8.55217C14.576 8.55217 14.8349 8.49992 15.0759 8.39848C15.317 8.29704 15.5353 8.14846 15.7181 7.96147C15.9009 7.77448 16.0446 7.55284 16.1405 7.30957C16.2365 7.06631 16.2829 6.80632 16.277 6.54487V5.44487H20.664V6.54487C20.6549 6.81058 20.6987 7.07545 20.7927 7.32414C20.8867 7.57283 21.0291 7.8004 21.2117 7.99367C21.3943 8.18694 21.6134 8.34207 21.8563 8.45007C22.0992 8.55807 22.3612 8.61681 22.627 8.62287C22.8854 8.62514 23.1417 8.57591 23.3809 8.47806C23.6201 8.38022 23.8374 8.23571 24.0201 8.05297C24.2028 7.87024 24.3473 7.65294 24.4452 7.41375C24.543 7.17457 24.5923 6.91829 24.59 6.65987V5.44487H28.977V6.54487C28.9711 6.80632 29.0175 7.06631 29.1135 7.30957C29.2094 7.55284 29.3531 7.77448 29.5359 7.96147C29.7187 8.14846 29.937 8.29704 30.1781 8.39848C30.4191 8.49992 30.678 8.55217 30.9395 8.55217C31.201 8.55217 31.4599 8.49992 31.7009 8.39848C31.942 8.29704 32.1603 8.14846 32.3431 7.96147C32.5259 7.77448 32.6696 7.55284 32.7655 7.30957C32.8615 7.06631 32.9079 6.80632 32.902 6.54487V5.44487H35.788V11.0999H1.154V5.44487ZM35.787 36.8999H1.154V12.2559H35.787V36.8999Z" fill="#193651"/>
<path d="M15.411 22.9918C15.4121 22.8627 15.3874 22.7347 15.3385 22.6152C15.2896 22.4956 15.2174 22.3871 15.1261 22.2958C15.0347 22.2044 14.9262 22.1322 14.8067 22.0833C14.6872 22.0344 14.5591 22.0097 14.43 22.0108C13.91 22.0108 13.449 22.3568 12.987 23.1108L11.544 22.2448C11.8229 21.6928 12.2531 21.2315 12.7843 20.9148C13.3155 20.598 13.9258 20.4388 14.544 20.4558C15.2246 20.4478 15.8836 20.6951 16.391 21.1488C16.6562 21.3759 16.8666 21.6599 17.0065 21.9798C17.1464 22.2996 17.2122 22.647 17.199 22.9958C17.1431 23.5172 16.9813 24.0217 16.7233 24.4783C16.4654 24.9349 16.1168 25.3339 15.699 25.6508L14.256 27.1508H17.488V28.7668H11.774V27.4388L14.141 25.0148C14.544 24.4928 15.411 23.6838 15.411 22.9918Z" fill="#193651"/>
<path d="M22.05 28.8789C19.626 28.8789 18.702 27.0319 18.702 24.6649C18.702 22.2979 19.683 20.4509 22.05 20.4509C24.474 20.4509 25.398 22.2979 25.398 24.6649C25.398 27.0319 24.474 28.8789 22.05 28.8789ZM20.492 24.6649C20.492 25.9349 20.781 27.3779 22.05 27.3779C23.319 27.3779 23.608 25.9349 23.608 24.6649C23.608 23.3949 23.319 21.9519 22.05 21.9519C20.781 21.9519 20.491 23.3959 20.491 24.6659L20.492 24.6649Z" fill="#193651"/>
<path d="M15.931 16.469H14.777V17.623H15.931V16.469Z" fill="#193651"/>
<path d="M19.048 16.469H17.894V17.623H19.048V16.469Z" fill="#193651"/>
<path d="M22.165 16.469H21.011V17.623H22.165V16.469Z" fill="#193651"/>
<path d="M7.503 19.2981H6.349V20.4521H7.503V19.2981Z" fill="#193651"/>
<path d="M7.503 22.415H6.349V23.569H7.503V22.415Z" fill="#193651"/>
<path d="M30.361 19.2981H29.207V20.4521H30.361V19.2981Z" fill="#193651"/>
<path d="M30.361 22.415H29.207V23.569H30.361V22.415Z" fill="#193651"/>
<path d="M30.361 25.532H29.207V26.686H30.361V25.532Z" fill="#193651"/>
</svg>
