<svg width="46" height="46" viewBox="0 0 46 46" fill="none" xmlns="http://www.w3.org/2000/svg">
<path d="M45.21 7.75H10.836V33.369H45.21V7.75Z" fill="white"/>
<path d="M45.21 34.088H10.836C10.7402 34.0938 10.6442 34.0793 10.5545 34.0452C10.4647 34.0112 10.3832 33.9585 10.3153 33.8907C10.2474 33.8228 10.1948 33.7413 10.1607 33.6515C10.1267 33.5618 10.1121 33.4658 10.118 33.37V7.75099C10.1121 7.65518 10.1267 7.55922 10.1607 7.46946C10.1948 7.37971 10.2474 7.2982 10.3153 7.23032C10.3832 7.16245 10.4647 7.10976 10.5545 7.07574C10.6442 7.04173 10.7402 7.02715 10.836 7.03299H45.21C45.3058 7.02715 45.4018 7.04173 45.4915 7.07574C45.5813 7.10976 45.6628 7.16245 45.7307 7.23032C45.7985 7.2982 45.8512 7.37971 45.8852 7.46946C45.9193 7.55922 45.9338 7.65518 45.928 7.75099V33.37C45.9277 33.5603 45.852 33.7428 45.7174 33.8774C45.5828 34.012 45.4003 34.0877 45.21 34.088ZM11.549 32.652H44.488V8.46799H11.549V32.652Z" fill="#193651"/>
<path d="M42.384 10.614H13.751V30.492H42.384V10.614Z" fill="#E1E6E9"/>
<path d="M16.721 11.769H5.021C3.87995 11.7722 2.78654 12.2269 1.97969 13.0337C1.17285 13.8406 0.718163 14.934 0.714996 16.075V30.284H5.093V45.284H16.721V30.284H21.099V16.075C21.0675 14.9305 20.594 13.8427 19.7777 13.0399C18.9614 12.237 17.8659 11.7815 16.721 11.769Z" fill="white"/>
<path d="M16.721 11.0511H5.023C4.36222 11.047 3.7072 11.1741 3.09592 11.4251C2.48464 11.6761 1.92927 12.0459 1.46202 12.5131C0.994773 12.9804 0.624938 13.5358 0.373966 14.147C0.122995 14.7583 -0.0041187 15.4133 -2.39839e-06 16.0741V30.2841C-0.00584332 30.3799 0.00872657 30.4759 0.0427434 30.5656C0.0767602 30.6554 0.129449 30.7369 0.197323 30.8048C0.265197 30.8727 0.34671 30.9254 0.436469 30.9594C0.526228 30.9934 0.622187 31.008 0.717998 31.0021H4.378V45.2841C4.37216 45.3799 4.38673 45.4759 4.42074 45.5656C4.45476 45.6554 4.50745 45.7369 4.57532 45.8048C4.6432 45.8727 4.72471 45.9254 4.81447 45.9594C4.90423 45.9934 5.00019 46.008 5.096 46.0021H16.721C16.8168 46.008 16.9128 45.9934 17.0025 45.9594C17.0923 45.9254 17.1738 45.8727 17.2417 45.8048C17.3095 45.7369 17.3622 45.6554 17.3963 45.5656C17.4303 45.4759 17.4448 45.3799 17.439 45.2841V31.0011H21.099C21.1948 31.007 21.2908 30.9924 21.3805 30.9584C21.4703 30.9244 21.5518 30.8717 21.6197 30.8038C21.6875 30.7359 21.7402 30.6544 21.7743 30.5646C21.8083 30.4749 21.8228 30.3789 21.817 30.2831V16.0741C21.7844 14.7396 21.2348 13.4699 20.2841 12.5328C19.3333 11.5957 18.0559 11.0645 16.721 11.0511ZM20.312 29.5661H16.652C16.5562 29.5603 16.4602 29.5749 16.3705 29.6089C16.2807 29.6429 16.1992 29.6956 16.1313 29.7634C16.0634 29.8313 16.0108 29.9128 15.9767 30.0026C15.9427 30.0924 15.9282 30.1883 15.934 30.2841V44.5641H5.812V30.2841C5.81784 30.1883 5.80327 30.0924 5.76925 30.0026C5.73524 29.9128 5.68255 29.8313 5.61467 29.7634C5.5468 29.6956 5.46529 29.6429 5.37553 29.6089C5.28577 29.5749 5.18981 29.5603 5.094 29.5661H1.435V16.0741C1.43005 15.6015 1.51947 15.1326 1.698 14.6949C1.87654 14.2573 2.14061 13.8596 2.47475 13.5253C2.80889 13.191 3.20638 12.9267 3.64395 12.7479C4.08151 12.5691 4.55034 12.4794 5.023 12.4841H16.723C17.1957 12.4793 17.6647 12.5689 18.1024 12.7476C18.54 12.9263 18.9376 13.1906 19.2719 13.5249C19.6061 13.8593 19.8703 14.257 20.0489 14.6947C20.2275 15.1324 20.3169 15.6014 20.312 16.0741V29.5651V29.5661Z" fill="#193651"/>
<path d="M7.966 42.4121V27.4121H3.588V16.0751C3.58905 15.6949 3.74058 15.3305 4.00947 15.0616C4.27835 14.7927 4.64274 14.6412 5.023 14.6401H16.723C17.1033 14.6412 17.4676 14.7927 17.7365 15.0616C18.0054 15.3305 18.1569 15.6949 18.158 16.0751V27.4141H13.778V42.4141L7.966 42.4121Z" fill="#4FBF9F"/>
<path d="M10.836 10.4051C13.4914 10.4051 15.644 8.25245 15.644 5.59706C15.644 2.94168 13.4914 0.789062 10.836 0.789062C8.18061 0.789062 6.028 2.94168 6.028 5.59706C6.028 8.25245 8.18061 10.4051 10.836 10.4051Z" fill="white"/>
<path d="M10.837 11.051C9.74405 11.051 8.67566 10.7269 7.76691 10.1197C6.85817 9.51252 6.14988 8.64948 5.73163 7.63973C5.31338 6.62999 5.20395 5.5189 5.41717 4.44696C5.63039 3.37502 6.1567 2.39038 6.92952 1.61755C7.70235 0.844729 8.68698 0.318428 9.75892 0.105206C10.8309 -0.108015 11.942 0.00141776 12.9517 0.419668C13.9614 0.837918 14.8245 1.5462 15.4317 2.45494C16.0389 3.36369 16.363 4.43209 16.363 5.52503C16.3625 6.99045 15.7801 8.3957 14.7439 9.43191C13.7077 10.4681 12.3024 11.0505 10.837 11.051ZM10.837 1.50703C10.2998 1.50689 9.76794 1.6126 9.27166 1.81809C8.77538 2.02359 8.32445 2.32485 7.94463 2.70467C7.56481 3.08448 7.26355 3.53541 7.05806 4.03169C6.85256 4.52798 6.74686 5.05988 6.74699 5.59703C6.74699 6.68189 7.17796 7.72233 7.94507 8.48945C8.71219 9.25656 9.75262 9.68753 10.8375 9.68753C11.9224 9.68753 12.9628 9.25656 13.7299 8.48945C14.497 7.72233 14.928 6.68189 14.928 5.59703C14.9342 5.05812 14.8325 4.52342 14.6291 4.02435C14.4257 3.52528 14.1246 3.0719 13.7434 2.69086C13.3623 2.30982 12.9089 2.00881 12.4097 1.80551C11.9106 1.60221 11.3759 1.50073 10.837 1.50703Z" fill="#193651"/>
<path d="M10.837 46.0001C10.7412 46.0059 10.6452 45.9914 10.5555 45.9573C10.4657 45.9233 10.3842 45.8706 10.3163 45.8028C10.2484 45.7349 10.1958 45.6534 10.1617 45.5636C10.1277 45.4738 10.1132 45.3779 10.119 45.2821V32.2221C10.1154 32.1256 10.1313 32.0294 10.1657 31.9392C10.2002 31.849 10.2524 31.7667 10.3194 31.6971C10.3864 31.6276 10.4667 31.5723 10.5556 31.5345C10.6444 31.4968 10.74 31.4773 10.8365 31.4773C10.933 31.4773 11.0286 31.4968 11.1174 31.5345C11.2063 31.5723 11.2866 31.6276 11.3536 31.6971C11.4206 31.7667 11.4728 31.849 11.5073 31.9392C11.5417 32.0294 11.5576 32.1256 11.554 32.2221V45.2831C11.5597 45.3787 11.545 45.4745 11.511 45.5641C11.477 45.6536 11.4244 45.735 11.3566 45.8027C11.2889 45.8705 11.2075 45.9231 11.118 45.9571C11.0284 45.9911 10.9326 46.0058 10.837 46.0001Z" fill="#193651"/>
<path d="M16.65 31.002C16.5542 31.0079 16.4582 30.9933 16.3685 30.9593C16.2787 30.9253 16.1972 30.8726 16.1293 30.8047C16.0614 30.7368 16.0088 30.6553 15.9747 30.5656C15.9407 30.4758 15.9262 30.3799 15.932 30.284V21.672C15.9284 21.5756 15.9443 21.4794 15.9787 21.3892C16.0132 21.299 16.0654 21.2166 16.1324 21.1471C16.1994 21.0776 16.2797 21.0223 16.3686 20.9845C16.4574 20.9467 16.553 20.9272 16.6495 20.9272C16.746 20.9272 16.8416 20.9467 16.9304 20.9845C17.0193 21.0223 17.0996 21.0776 17.1666 21.1471C17.2336 21.2166 17.2858 21.299 17.3203 21.3892C17.3547 21.4794 17.3706 21.5756 17.367 21.672V30.284C17.3728 30.3798 17.3583 30.4756 17.3243 30.5653C17.2904 30.655 17.2378 30.7365 17.17 30.8043C17.1022 30.8722 17.0208 30.9249 16.9312 30.959C16.8416 30.9931 16.7457 31.0077 16.65 31.002Z" fill="#193651"/>
<path d="M5.09599 31.0019C5.00018 31.0078 4.90422 30.9932 4.81447 30.9592C4.72471 30.9252 4.6432 30.8725 4.57532 30.8046C4.50745 30.7367 4.45476 30.6552 4.42074 30.5654C4.38673 30.4757 4.37215 30.3797 4.378 30.2839V21.6719C4.38493 21.4863 4.46356 21.3105 4.59736 21.1816C4.73116 21.0527 4.90971 20.9807 5.09549 20.9807C5.28128 20.9807 5.45984 21.0527 5.59364 21.1816C5.72744 21.3105 5.80606 21.4863 5.813 21.6719V30.2839C5.81273 30.4741 5.73714 30.6564 5.60276 30.791C5.46838 30.9256 5.28617 31.0014 5.09599 31.0019Z" fill="#193651"/>
<path d="M11.554 16.29H10.119V17.725H11.554V16.29Z" fill="#193651"/>
<path d="M11.554 20.166H10.119V21.601H11.554V20.166Z" fill="#193651"/>
<path d="M11.554 24.041H10.119V25.476H11.554V24.041Z" fill="#193651"/>
<path d="M37.892 15.07H25.764C25.6675 15.0736 25.5713 15.0577 25.4811 15.0233C25.3909 14.9889 25.3086 14.9366 25.2391 14.8696C25.1695 14.8026 25.1143 14.7223 25.0765 14.6335C25.0387 14.5446 25.0192 14.4491 25.0192 14.3525C25.0192 14.256 25.0387 14.1604 25.0765 14.0716C25.1143 13.9827 25.1695 13.9024 25.2391 13.8354C25.3086 13.7684 25.3909 13.7162 25.4811 13.6817C25.5713 13.6473 25.6675 13.6314 25.764 13.635H37.892C37.9885 13.6314 38.0847 13.6473 38.1749 13.6817C38.2651 13.7162 38.3474 13.7684 38.4169 13.8354C38.4865 13.9024 38.5418 13.9827 38.5796 14.0716C38.6173 14.1604 38.6368 14.256 38.6368 14.3525C38.6368 14.4491 38.6173 14.5446 38.5796 14.6335C38.5418 14.7223 38.4865 14.8026 38.4169 14.8696C38.3474 14.9366 38.2651 14.9889 38.1749 15.0233C38.0847 15.0577 37.9885 15.0736 37.892 15.07Z" fill="#193651"/>
<path d="M37.892 19.3759H25.764C25.6675 19.3795 25.5713 19.3636 25.4811 19.3292C25.3909 19.2948 25.3086 19.2425 25.2391 19.1755C25.1695 19.1085 25.1143 19.0282 25.0765 18.9394C25.0387 18.8505 25.0192 18.755 25.0192 18.6584C25.0192 18.5619 25.0387 18.4663 25.0765 18.3775C25.1143 18.2886 25.1695 18.2083 25.2391 18.1414C25.3086 18.0744 25.3909 18.0221 25.4811 17.9877C25.5713 17.9532 25.6675 17.9373 25.764 17.9409H37.892C37.9885 17.9373 38.0847 17.9532 38.1749 17.9877C38.2651 18.0221 38.3474 18.0744 38.4169 18.1414C38.4865 18.2083 38.5418 18.2886 38.5796 18.3775C38.6173 18.4663 38.6368 18.5619 38.6368 18.6584C38.6368 18.755 38.6173 18.8505 38.5796 18.9394C38.5418 19.0282 38.4865 19.1085 38.4169 19.1755C38.3474 19.2425 38.2651 19.2948 38.1749 19.3292C38.0847 19.3636 37.9885 19.3795 37.892 19.3759Z" fill="#193651"/>
<path d="M37.892 23.6821H25.764C25.6675 23.6857 25.5713 23.6698 25.4811 23.6354C25.3909 23.6009 25.3086 23.5487 25.2391 23.4817C25.1695 23.4147 25.1143 23.3344 25.0765 23.2455C25.0387 23.1567 25.0192 23.0611 25.0192 22.9646C25.0192 22.8681 25.0387 22.7725 25.0765 22.6837C25.1143 22.5948 25.1695 22.5145 25.2391 22.4475C25.3086 22.3805 25.3909 22.3283 25.4811 22.2938C25.5713 22.2594 25.6675 22.2435 25.764 22.2471H37.892C37.9885 22.2435 38.0847 22.2594 38.1749 22.2938C38.2651 22.3283 38.3474 22.3805 38.4169 22.4475C38.4865 22.5145 38.5418 22.5948 38.5796 22.6837C38.6173 22.7725 38.6368 22.8681 38.6368 22.9646C38.6368 23.0611 38.6173 23.1567 38.5796 23.2455C38.5418 23.3344 38.4865 23.4147 38.4169 23.4817C38.3474 23.5487 38.2651 23.6009 38.1749 23.6354C38.0847 23.6698 37.9885 23.6857 37.892 23.6821Z" fill="#193651"/>
<path d="M37.892 28.0591H25.764C25.6675 28.0627 25.5713 28.0468 25.4811 28.0123C25.3909 27.9779 25.3086 27.9256 25.2391 27.8586C25.1695 27.7917 25.1143 27.7113 25.0765 27.6225C25.0387 27.5337 25.0192 27.4381 25.0192 27.3416C25.0192 27.245 25.0387 27.1495 25.0765 27.0606C25.1143 26.9718 25.1695 26.8914 25.2391 26.8245C25.3086 26.7575 25.3909 26.7052 25.4811 26.6708C25.5713 26.6363 25.6675 26.6205 25.764 26.6241H37.892C37.9878 26.6182 38.0838 26.6328 38.1735 26.6668C38.2633 26.7008 38.3448 26.7535 38.4127 26.8214C38.4806 26.8893 38.5332 26.9708 38.5673 27.0606C38.6013 27.1503 38.6159 27.2463 38.61 27.3421C38.6095 27.5322 38.5336 27.7144 38.3991 27.8488C38.2645 27.9832 38.0822 28.0588 37.892 28.0591Z" fill="#193651"/>
<path d="M24.543 38.3931C23.4394 38.3939 22.3812 38.8326 21.6009 39.613C20.8205 40.3933 20.3818 41.4515 20.381 42.5551V45.2821H28.634V42.5551C28.6422 42.0122 28.5425 41.4731 28.3407 40.9691C28.1389 40.4651 27.839 40.0061 27.4584 39.619C27.0778 39.2318 26.6241 38.924 26.1237 38.7136C25.6232 38.5031 25.0859 38.3942 24.543 38.3931Z" fill="#FDBF5E"/>
<path d="M28.633 46.002H20.38C20.2842 46.0079 20.1882 45.9933 20.0985 45.9593C20.0087 45.9252 19.9272 45.8726 19.8593 45.8047C19.7915 45.7368 19.7388 45.6553 19.7047 45.5656C19.6707 45.4758 19.6562 45.3798 19.662 45.284V42.557C19.662 41.2628 20.1762 40.0215 21.0913 39.1063C22.0065 38.1911 23.2478 37.677 24.542 37.677C25.8363 37.677 27.0775 38.1911 27.9927 39.1063C28.9079 40.0215 29.422 41.2628 29.422 42.557V45.284C29.4058 45.4813 29.3154 45.6652 29.169 45.7984C29.0225 45.9317 28.831 46.0044 28.633 46.002ZM21.098 44.567H27.918V42.558C27.9258 42.1007 27.8425 41.6465 27.6729 41.2217C27.5033 40.797 27.2508 40.4103 26.9302 40.0842C26.6095 39.758 26.2272 39.499 25.8054 39.3222C25.3836 39.1454 24.9308 39.0543 24.4735 39.0543C24.0162 39.0543 23.5634 39.1454 23.1416 39.3222C22.7198 39.499 22.3375 39.758 22.0169 40.0842C21.6962 40.4103 21.4438 40.797 21.2742 41.2217C21.1046 41.6465 21.0212 42.1007 21.029 42.558V44.567H21.098Z" fill="#193651"/>
<path d="M24.543 38.3929C26.2474 38.3929 27.629 37.0113 27.629 35.3069C27.629 33.6026 26.2474 32.2209 24.543 32.2209C22.8386 32.2209 21.457 33.6026 21.457 35.3069C21.457 37.0113 22.8386 38.3929 24.543 38.3929Z" fill="white"/>
<path d="M24.542 39.111C23.7904 39.111 23.0557 38.8881 22.4308 38.4706C21.8059 38.053 21.3189 37.4595 21.0313 36.7652C20.7436 36.0708 20.6684 35.3068 20.815 34.5696C20.9616 33.8325 21.3236 33.1554 21.855 32.624C22.3864 32.0925 23.0635 31.7306 23.8007 31.584C24.5378 31.4374 25.3018 31.5126 25.9962 31.8002C26.6906 32.0878 27.284 32.5749 27.7016 33.1998C28.1191 33.8247 28.342 34.5594 28.342 35.311C28.3225 36.3127 27.9159 37.268 27.2075 37.9765C26.499 38.6849 25.5437 39.0915 24.542 39.111ZM24.542 32.939C24.0737 32.939 23.6158 33.0779 23.2264 33.3381C22.837 33.5983 22.5335 33.9681 22.3543 34.4008C22.175 34.8335 22.1281 35.3096 22.2195 35.7689C22.3109 36.2283 22.5364 36.6502 22.8676 36.9814C23.1987 37.3126 23.6207 37.5381 24.08 37.6295C24.5394 37.7209 25.0155 37.6739 25.4482 37.4947C25.8809 37.3155 26.2507 37.012 26.5109 36.6226C26.7711 36.2332 26.91 35.7753 26.91 35.307C26.9045 34.6806 26.6533 34.0815 26.2104 33.6386C25.7675 33.1957 25.1683 32.9445 24.542 32.939Z" fill="#193651"/>
<path d="M32.795 38.393C31.6914 38.3937 30.6332 38.8325 29.8529 39.6129C29.0725 40.3932 28.6338 41.4514 28.633 42.5549V45.282H36.886V42.5549C36.8997 42.0106 36.8038 41.4691 36.6039 40.9627C36.4041 40.4562 36.1044 39.9951 35.7227 39.6068C35.3411 39.2185 34.8852 38.9109 34.3822 38.7024C33.8792 38.4938 33.3395 38.3886 32.795 38.393Z" fill="#FDBF5E"/>
<path d="M36.959 46.002H28.635C28.5392 46.0079 28.4432 45.9933 28.3535 45.9593C28.2637 45.9252 28.1822 45.8726 28.1143 45.8047C28.0464 45.7368 27.9938 45.6553 27.9598 45.5656C27.9257 45.4758 27.9112 45.3798 27.917 45.284V42.557C27.917 41.2628 28.4311 40.0215 29.3463 39.1063C30.2615 38.1911 31.5027 37.677 32.797 37.677C34.0913 37.677 35.3325 38.1911 36.2477 39.1063C37.1629 40.0215 37.677 41.2628 37.677 42.557V45.284C37.6767 45.4743 37.601 45.6568 37.4664 45.7914C37.3318 45.926 37.1494 46.0017 36.959 46.002ZM29.352 44.567H36.169V42.558C36.1768 42.1007 36.0935 41.6465 35.9239 41.2217C35.7543 40.797 35.5018 40.4103 35.1812 40.0842C34.8605 39.758 34.4782 39.499 34.0564 39.3222C33.6346 39.1454 33.1819 39.0543 32.7245 39.0543C32.2672 39.0543 31.8144 39.1454 31.3926 39.3222C30.9708 39.499 30.5885 39.758 30.2679 40.0842C29.9472 40.4103 29.6948 40.797 29.5252 41.2217C29.3555 41.6465 29.2722 42.1007 29.28 42.558V44.567H29.352Z" fill="#193651"/>
<path d="M32.796 38.3929C34.5003 38.3929 35.882 37.0113 35.882 35.3069C35.882 33.6026 34.5003 32.2209 32.796 32.2209C31.0916 32.2209 29.71 33.6026 29.71 35.3069C29.71 37.0113 31.0916 38.3929 32.796 38.3929Z" fill="white"/>
<path d="M32.798 39.111C32.0464 39.111 31.3117 38.8881 30.6868 38.4706C30.0619 38.053 29.5749 37.4595 29.2872 36.7652C28.9996 36.0708 28.9244 35.3068 29.071 34.5696C29.2176 33.8325 29.5795 33.1554 30.111 32.624C30.6424 32.0925 31.3195 31.7306 32.0566 31.584C32.7938 31.4374 33.5578 31.5126 34.2522 31.8002C34.9465 32.0878 35.54 32.5749 35.9576 33.1998C36.3751 33.8247 36.598 34.5594 36.598 35.311C36.5904 36.3164 36.1876 37.2786 35.4766 37.9896C34.7656 38.7006 33.8035 39.1034 32.798 39.111ZM32.798 32.939C32.3296 32.939 31.8718 33.0779 31.4824 33.3381C31.093 33.5983 30.7895 33.9681 30.6102 34.4008C30.431 34.8335 30.3841 35.3096 30.4755 35.7689C30.5669 36.2283 30.7924 36.6502 31.1236 36.9814C31.4547 37.3126 31.8767 37.5381 32.336 37.6295C32.7954 37.7209 33.2715 37.6739 33.7042 37.4947C34.1369 37.3155 34.5067 37.012 34.7669 36.6226C35.0271 36.2332 35.166 35.7753 35.166 35.307C35.1605 34.6806 34.9093 34.0815 34.4664 33.6386C34.0235 33.1957 33.4243 32.9445 32.798 32.939Z" fill="#193651"/>
<path d="M45.211 45.2821H36.955V42.5551C36.9558 41.4515 37.3945 40.3933 38.1749 39.613C38.9553 38.8326 40.0134 38.3939 41.117 38.3931C42.2206 38.3939 43.2787 38.8326 44.0591 39.613C44.8394 40.3933 45.2782 41.4515 45.279 42.5551V45.2821H45.211Z" fill="#FDBF5E"/>
<path d="M41.048 37.675C39.7541 37.6763 38.5137 38.1908 37.5988 39.1057C36.6839 40.0206 36.1693 41.2611 36.168 42.555V45.282C36.1621 45.3778 36.1767 45.4737 36.2107 45.5635C36.2448 45.6532 36.2974 45.7348 36.3653 45.8026C36.4332 45.8705 36.5147 45.9232 36.6045 45.9572C36.6942 45.9912 36.7902 46.0058 36.886 46H45.21C45.3058 46.0058 45.4018 45.9912 45.4915 45.9572C45.5813 45.9232 45.6628 45.8705 45.7307 45.8026C45.7985 45.7348 45.8512 45.6532 45.8852 45.5635C45.9193 45.4737 45.9338 45.3778 45.928 45.282V42.555C45.9333 41.9126 45.8108 41.2756 45.5674 40.6812C45.324 40.0867 44.9648 39.5466 44.5106 39.0924C44.0564 38.6382 43.5162 38.2789 42.9218 38.0356C42.3273 37.7922 41.6903 37.6696 41.048 37.675ZM44.493 44.5639H37.676V42.555C37.6682 42.0977 37.7516 41.6434 37.9212 41.2187C38.0908 40.794 38.3432 40.4073 38.6639 40.0811C38.9845 39.755 39.3668 39.496 39.7886 39.3191C40.2104 39.1423 40.6632 39.0513 41.1205 39.0513C41.5778 39.0513 42.0306 39.1423 42.4524 39.3191C42.8742 39.496 43.2565 39.755 43.5771 40.0811C43.8978 40.4073 44.1502 40.794 44.3198 41.2187C44.4894 41.6434 44.5728 42.0977 44.565 42.555V44.5639H44.493Z" fill="#193651"/>
<path d="M41.048 38.3929C42.7524 38.3929 44.134 37.0113 44.134 35.3069C44.134 33.6026 42.7524 32.2209 41.048 32.2209C39.3437 32.2209 37.962 33.6026 37.962 35.3069C37.962 37.0113 39.3437 38.3929 41.048 38.3929Z" fill="white"/>
<path d="M41.048 39.111C40.2964 39.111 39.5617 38.8881 38.9368 38.4706C38.3119 38.053 37.8248 37.4595 37.5372 36.7652C37.2496 36.0708 37.1744 35.3068 37.321 34.5696C37.4676 33.8325 37.8296 33.1554 38.361 32.624C38.8924 32.0925 39.5695 31.7306 40.3066 31.584C41.0438 31.4374 41.8078 31.5126 42.5022 31.8002C43.1965 32.0878 43.79 32.5749 44.2076 33.1998C44.6251 33.8247 44.848 34.5594 44.848 35.311C44.8404 36.3164 44.4376 37.2786 43.7266 37.9896C43.0156 38.7006 42.0535 39.1034 41.048 39.111ZM41.048 32.939C40.5796 32.939 40.1218 33.0779 39.7324 33.3381C39.343 33.5983 39.0395 33.9681 38.8602 34.4008C38.681 34.8335 38.6341 35.3096 38.7255 35.7689C38.8169 36.2283 39.0424 36.6502 39.3736 36.9814C39.7047 37.3126 40.1267 37.5381 40.586 37.6295C41.0453 37.7209 41.5215 37.6739 41.9542 37.4947C42.3869 37.3155 42.7567 37.012 43.0169 36.6226C43.2771 36.2332 43.416 35.7753 43.416 35.307C43.4105 34.6806 43.1592 34.0815 42.7163 33.6386C42.2734 33.1957 41.6743 32.9445 41.048 32.939Z" fill="#193651"/>
</svg>
