<svg width="42" height="42" viewBox="0 0 42 42" fill="none" xmlns="http://www.w3.org/2000/svg">
<path d="M5.145 35.559L5.08 22.208H8.141L8.206 35.559H5.145Z" fill="#F15F50"/>
<path d="M3.69207 20.061L3.708 23.252L9.50393 23.223L9.488 20.0321L3.69207 20.061Z" fill="white"/>
<path d="M3.061 23.901V19.407L10.161 19.342V23.836L3.061 23.901ZM4.361 20.71V22.599H8.861V20.71H4.361Z" fill="#193651"/>
<path d="M19.277 35.4931L19.212 22.1421H22.273L22.338 35.4931H19.277Z" fill="#F15F50"/>
<path d="M17.8701 19.9812L17.886 23.1721L23.6819 23.1432L23.666 19.9522L17.8701 19.9812Z" fill="white"/>
<path d="M17.258 23.8361V19.3421L24.358 19.2771V23.7711L17.258 23.8361ZM18.558 20.6451V22.5341H23.058V20.6451H18.558Z" fill="#193651"/>
<path d="M33.539 35.4279L33.409 22.0769H36.535L36.6 35.4279H33.539Z" fill="#F15F50"/>
<path d="M32.0381 19.8859L32.054 23.0769L37.8499 23.048L37.834 19.857L32.0381 19.8859Z" fill="white"/>
<path d="M31.455 23.7709V19.2769L38.555 19.2119V23.7059L31.455 23.7709ZM32.755 20.5799V22.4689H37.255V20.5799H32.755Z" fill="#193651"/>
<path d="M3.80507 34.562L3.821 37.7529L9.61693 37.724L9.601 34.533L3.80507 34.562Z" fill="white"/>
<path d="M3.191 38.424V33.93L10.291 33.865V38.359L3.191 38.424ZM4.491 35.233V37.122H8.991V35.233H4.491Z" fill="#193651"/>
<path d="M17.8871 34.518L17.903 37.709L23.6989 37.6801L23.683 34.4891L17.8871 34.518Z" fill="white"/>
<path d="M17.258 38.424V33.93L24.291 33.865V38.359L17.258 38.424ZM18.558 35.168V37.057H23.058V35.165L18.558 35.168Z" fill="#193651"/>
<path d="M32.1491 34.4521L32.165 37.6431L37.9609 37.6141L37.945 34.4232L32.1491 34.4521Z" fill="white"/>
<path d="M31.52 38.2941V33.8001L38.62 33.7351V38.2291L31.52 38.2941ZM32.82 35.1031V36.9921H37.32V35.1031H32.82Z" fill="#193651"/>
<path d="M0.79052 41L41.038 40.7949L41.0217 37.604L0.774258 37.8091L0.79052 41Z" fill="#D3D7DA"/>
<path d="M0.13 41.68V37.186L41.68 36.926V41.42L0.13 41.68ZM1.43 38.489V40.378L40.375 40.178V38.289L1.43 38.489Z" fill="#193651"/>
<path d="M40.898 19.8629L0.651 20.0579V16.6719L20.709 5.7959L40.898 16.4759V19.8629Z" fill="white"/>
<path d="M0 20.7101V16.2801L20.71 5.08008L41.55 16.0861V20.5141L0 20.7101ZM1.3 17.0631V19.4071L40.245 19.2071V16.8681L20.71 6.51308L1.3 17.0631Z" fill="#193651"/>
<path d="M28.98 23.6399H27.678V24.9419H28.98V23.6399Z" fill="#193651"/>
<path d="M28.98 28.0691H27.678V29.3711H28.98V28.0691Z" fill="#193651"/>
<path d="M29 32H27V34H29V32Z" fill="#193651"/>
<path d="M14.327 23.6399H13.025V24.9419H14.327V23.6399Z" fill="#193651"/>
<path d="M14.327 28.0691H13.025V29.3711H14.327V28.0691Z" fill="#193651"/>
<path d="M14 32H13V34H14V32Z" fill="#193651"/>
<path d="M20.775 0.650879C18.5992 0.652733 16.513 1.51789 14.9745 3.05641C13.436 4.59493 12.5708 6.68108 12.569 8.85688C12.5645 9.93577 12.7737 11.0049 13.1845 12.0025C13.5953 13.0001 14.1996 13.9065 14.9625 14.6694C15.7253 15.4323 16.6318 16.0366 17.6294 16.4474C18.627 16.8582 19.6961 17.0674 20.775 17.0629C22.9508 17.061 25.0369 16.1959 26.5755 14.6574C28.114 13.1188 28.9791 11.0327 28.981 8.85688C28.9791 6.68108 28.114 4.59493 26.5755 3.05641C25.0369 1.51789 22.9508 0.652733 20.775 0.650879Z" fill="#FFBF5D"/>
<path d="M20.775 17.714C19.0232 17.714 17.3108 17.1945 15.8543 16.2213C14.3978 15.2481 13.2626 13.8648 12.5922 12.2464C11.9218 10.628 11.7464 8.84718 12.0882 7.12909C12.4299 5.411 13.2735 3.83283 14.5121 2.59416C15.7508 1.35549 17.329 0.511938 19.0471 0.170189C20.7652 -0.171561 22.546 0.00383759 24.1644 0.674203C25.7828 1.34457 27.1661 2.47979 28.1393 3.93632C29.1125 5.39284 29.632 7.10526 29.632 8.857C29.6296 11.2053 28.6957 13.4567 27.0352 15.1172C25.3747 16.7777 23.1233 17.7116 20.775 17.714ZM20.775 1.303C19.281 1.303 17.8205 1.74604 16.5782 2.57608C15.336 3.40613 14.3678 4.5859 13.796 5.96621C13.2243 7.34653 13.0747 8.86538 13.3661 10.3307C13.6576 11.796 14.3771 13.142 15.4335 14.1985C16.49 15.2549 17.836 15.9744 19.3013 16.2659C20.7666 16.5573 22.2855 16.4077 23.6658 15.836C25.0461 15.2642 26.2259 14.296 27.0559 13.0538C27.886 11.8115 28.329 10.351 28.329 8.857C28.3282 6.85353 27.5322 4.93229 26.1158 3.51534C24.6994 2.09838 22.7785 1.30159 20.775 1.3V1.303Z" fill="#193651"/>
<path d="M20.775 13.6109C20.0679 13.6077 19.3906 13.3254 18.8905 12.8254C18.3905 12.3253 18.1082 11.648 18.105 10.9409H19.473C19.473 11.198 19.5492 11.4493 19.6921 11.6631C19.8349 11.8769 20.038 12.0435 20.2755 12.1419C20.5131 12.2403 20.7744 12.2661 21.0266 12.2159C21.2788 12.1658 21.5104 12.0419 21.6922 11.8601C21.8741 11.6783 21.9979 11.4467 22.048 11.1945C22.0982 10.9423 22.0724 10.6809 21.974 10.4434C21.8756 10.2059 21.709 10.0028 21.4952 9.85998C21.2815 9.71714 21.0301 9.64089 20.773 9.64089C20.0649 9.64089 19.3857 9.35959 18.885 8.85886C18.3843 8.35814 18.103 7.67902 18.103 6.97089C18.103 6.26276 18.3843 5.58364 18.885 5.08292C19.3857 4.58219 20.0649 4.30089 20.773 4.30089C21.1193 4.2952 21.4634 4.35806 21.7853 4.48584C22.1072 4.61363 22.4007 4.80381 22.6489 5.04546C22.897 5.28711 23.0949 5.57544 23.2312 5.89387C23.3675 6.2123 23.4395 6.55454 23.443 6.90089H22.075C22.075 6.64377 21.9988 6.39243 21.8559 6.17865C21.7131 5.96487 21.51 5.79824 21.2725 5.69985C21.0349 5.60145 20.7736 5.57571 20.5214 5.62587C20.2692 5.67603 20.0376 5.79984 19.8558 5.98165C19.6739 6.16346 19.5501 6.3951 19.5 6.64727C19.4498 6.89945 19.4756 7.16084 19.574 7.39838C19.6724 7.63592 19.839 7.83895 20.0528 7.9818C20.2665 8.12465 20.5179 8.20089 20.775 8.20089C21.4918 8.20089 22.1791 8.48562 22.686 8.99243C23.1928 9.49925 23.4775 10.1866 23.4775 10.9034C23.4775 11.6201 23.1928 12.3075 22.686 12.8143C22.1791 13.3212 21.4918 13.6059 20.775 13.6059V13.6109Z" fill="#193651"/>
<path d="M21.427 3.4519H20.059V4.4939H21.427V3.4519Z" fill="#193651"/>
<path d="M21.427 13.155H20.059V14.197H21.427V13.155Z" fill="#193651"/>
<path d="M16.802 8.14111H15.5V9.50911H16.802V8.14111Z" fill="#193651"/>
<path d="M26.049 8.14111H24.747V9.50911H26.049V8.14111Z" fill="#193651"/>
</svg>
