<svg width="42" height="43" viewBox="0 0 42 43" fill="none" xmlns="http://www.w3.org/2000/svg">
<path d="M41.346 17.064H0.655998V42.003H41.346V17.064Z" fill="#FDBF5E"/>
<path d="M41.347 42.659H0.655998C0.568482 42.6642 0.480848 42.6509 0.39888 42.6198C0.316912 42.5887 0.242474 42.5405 0.18048 42.4785C0.118486 42.4165 0.0703442 42.3421 0.0392335 42.2601C0.00812268 42.1781 -0.00525005 42.0905 -2.13296e-06 42.003V17.068C-0.00525005 16.9805 0.00812268 16.8928 0.0392335 16.8109C0.0703442 16.7289 0.118486 16.6545 0.18048 16.5925C0.242474 16.5305 0.316912 16.4823 0.39888 16.4512C0.480848 16.4201 0.568482 16.4068 0.655998 16.412H41.346C41.4335 16.4068 41.5211 16.4201 41.6031 16.4512C41.6851 16.4823 41.7595 16.5305 41.8215 16.5925C41.8835 16.6545 41.9316 16.7289 41.9628 16.8109C41.9939 16.8928 42.0072 16.9805 42.002 17.068V42.007C42.0066 42.0941 41.9929 42.1812 41.9615 42.2626C41.9302 42.344 41.8821 42.4179 41.8203 42.4794C41.7585 42.541 41.6843 42.5888 41.6028 42.6197C41.5212 42.6507 41.4341 42.664 41.347 42.659ZM1.313 41.346H40.691V17.72H1.313V41.346Z" fill="#193651"/>
<path d="M23.955 14.373C22.314 14.373 21.002 16.342 21.002 17.983V42.003C21.002 40.362 22.315 38.393 23.955 38.393H38.197V14.373H23.955Z" fill="white"/>
<path d="M21.001 42.6599C20.9135 42.6652 20.8258 42.6518 20.7439 42.6207C20.6619 42.5896 20.5875 42.5414 20.5255 42.4794C20.4635 42.4174 20.4153 42.343 20.3842 42.261C20.3531 42.1791 20.3398 42.0915 20.345 42.0039V17.9829C20.345 16.0139 21.92 13.7169 23.955 13.7169H38.197C38.2845 13.7117 38.3721 13.7251 38.4541 13.7562C38.5361 13.7873 38.6105 13.8354 38.6725 13.8974C38.7345 13.9594 38.7826 14.0338 38.8137 14.1158C38.8449 14.1978 38.8582 14.2854 38.853 14.3729V38.3929C38.8582 38.4804 38.8449 38.5681 38.8137 38.6501C38.7826 38.732 38.7345 38.8065 38.6725 38.8685C38.6105 38.9304 38.5361 38.9786 38.4541 39.0097C38.3721 39.0408 38.2845 39.0542 38.197 39.0489H23.955C22.708 39.0489 21.655 40.6899 21.655 42.0019C21.6605 42.0894 21.6474 42.1771 21.6165 42.2592C21.5857 42.3412 21.5378 42.4158 21.476 42.478C21.4142 42.5402 21.3399 42.5886 21.258 42.6199C21.1761 42.6513 21.0885 42.6649 21.001 42.6599ZM23.954 15.0299C22.707 15.0299 21.654 16.6709 21.654 17.9829V38.8529C21.9407 38.5195 22.2927 38.2484 22.6883 38.0565C23.0839 37.8645 23.5147 37.7558 23.954 37.7369H37.539V15.0299H23.954Z" fill="#193651"/>
<path d="M23.627 17.3261C23.6244 17.2823 23.6311 17.2385 23.6466 17.1975C23.6622 17.1566 23.6862 17.1194 23.7172 17.0884C23.7482 17.0574 23.7855 17.0333 23.8264 17.0177C23.8674 17.0022 23.9113 16.9955 23.955 16.9981H35.576V35.7681H23.627V17.3261Z" fill="#E1E6E9"/>
<path d="M18.049 14.373C19.69 14.373 21.002 16.342 21.002 17.983V42.003C21.002 40.362 19.689 38.393 18.049 38.393H3.80699V14.373H18.049Z" fill="white"/>
<path d="M21.001 42.6599C20.9135 42.6651 20.8259 42.6518 20.7439 42.6206C20.6619 42.5895 20.5875 42.5414 20.5255 42.4794C20.4635 42.4174 20.4154 42.343 20.3842 42.261C20.3531 42.179 20.3398 42.0914 20.345 42.0039C20.345 40.6909 19.229 39.0509 18.045 39.0509H3.80601C3.71849 39.0561 3.63085 39.0428 3.54889 39.0117C3.46692 38.9805 3.39248 38.9324 3.33049 38.8704C3.26849 38.8084 3.22035 38.734 3.18924 38.652C3.15813 38.57 3.14476 38.4824 3.15001 38.3949V14.3749C3.14476 14.2874 3.15813 14.1997 3.18924 14.1178C3.22035 14.0358 3.26849 13.9614 3.33049 13.8994C3.39248 13.8374 3.46692 13.7892 3.54889 13.7581C3.63085 13.727 3.71849 13.7136 3.80601 13.7189H18.048C20.082 13.7189 21.658 16.0189 21.658 17.9849V42.0049C21.6631 42.0924 21.6496 42.18 21.6184 42.2619C21.5871 42.3439 21.5389 42.4182 21.4768 42.4801C21.4147 42.542 21.3402 42.5901 21.2582 42.621C21.1762 42.652 21.0885 42.6653 21.001 42.6599ZM4.462 37.7379H18.048C18.4873 37.7567 18.9181 37.8655 19.3137 38.0574C19.7093 38.2494 20.0613 38.5205 20.348 38.8539V17.9839C20.348 16.6709 19.232 15.0309 18.048 15.0309H4.46301L4.462 37.7379Z" fill="#193651"/>
<path d="M18.377 35.7681H6.429V16.9981H18.048C18.0918 16.9955 18.1356 17.0022 18.1766 17.0177C18.2175 17.0333 18.2548 17.0574 18.2858 17.0884C18.3168 17.1194 18.3408 17.1566 18.3564 17.1975C18.3719 17.2385 18.3786 17.2823 18.376 17.3261L18.377 35.7681Z" fill="#E1E6E9"/>
<path d="M9.51699 31.1741H8.20399V32.4871H9.51699V31.1741Z" fill="#193651"/>
<path d="M13.061 31.1741H11.748V32.4871H13.061V31.1741Z" fill="#193651"/>
<path d="M16.605 31.1741H15.292V32.4871H16.605V31.1741Z" fill="#193651"/>
<path d="M8.466 22.4451L11.682 28.0891C11.7094 28.1342 11.7479 28.1715 11.7939 28.1974C11.8399 28.2233 11.8917 28.2369 11.9445 28.2369C11.9973 28.2369 12.0491 28.2233 12.0951 28.1974C12.1411 28.1715 12.1796 28.1342 12.207 28.0891L15.423 22.4451V5.57812H8.466V22.4451Z" fill="white"/>
<path d="M11.945 28.877C11.7776 28.8691 11.614 28.8238 11.4664 28.7443C11.3188 28.6649 11.1909 28.5534 11.092 28.418L7.811 22.643V4.98804H16.08V22.642L12.798 28.417C12.6992 28.5526 12.5713 28.6643 12.4237 28.7439C12.2761 28.8235 12.1125 28.869 11.945 28.877ZM9.12301 22.248L11.945 27.17L14.767 22.248V6.23004H9.12301V22.249V22.248Z" fill="#193651"/>
<path d="M13.126 6.16895H10.763V22.4449H13.126V6.16895Z" fill="#2EA2DB"/>
<path d="M8.466 22.4451L11.682 28.0231C11.7094 28.0682 11.7479 28.1055 11.7939 28.1314C11.8399 28.1573 11.8917 28.1709 11.9445 28.1709C11.9973 28.1709 12.0491 28.1573 12.0951 28.1314C12.1411 28.1055 12.1796 28.0682 12.207 28.0231L15.423 22.4451" fill="#FDBF5E"/>
<path d="M11.945 28.8771C11.7776 28.8691 11.614 28.8238 11.4664 28.7444C11.3188 28.665 11.1909 28.5535 11.092 28.4181L7.87599 22.8401L8.99199 22.1841L11.88 27.2371L14.768 22.1841L15.884 22.8401L12.668 28.4181C12.6101 28.5602 12.5093 28.6807 12.3798 28.763C12.2502 28.8453 12.0982 28.8851 11.945 28.8771Z" fill="#193651"/>
<path d="M14.045 0.655907H9.845C9.66284 0.651523 9.48168 0.684169 9.31252 0.751868C9.14335 0.819567 8.98969 0.920909 8.86085 1.04975C8.732 1.1786 8.63066 1.33226 8.56296 1.50143C8.49526 1.67059 8.46262 1.85175 8.467 2.03391V5.57791H15.424V2.03391C15.4219 1.66891 15.2759 1.31948 15.0177 1.06148C14.7595 0.803485 14.41 0.657745 14.045 0.655907Z" fill="#F16051"/>
<path d="M16.079 6.2351H7.81V2.0351C7.81262 1.49637 8.02773 0.980433 8.40858 0.599393C8.78944 0.218353 9.30526 0.00299144 9.84399 9.99749e-05H13.979C14.2471 -0.00256912 14.513 0.0482303 14.7612 0.149528C15.0094 0.250827 15.235 0.400591 15.4246 0.590065C15.6143 0.77954 15.7643 1.00492 15.8658 1.25304C15.9673 1.50115 16.0184 1.76702 16.016 2.0351L16.079 6.2351ZM9.123 4.9221H14.767V2.0341C14.7654 1.8431 14.6889 1.66036 14.5538 1.5253C14.4187 1.39024 14.236 1.31367 14.045 1.3121H9.84499C9.65399 1.31367 9.47126 1.39024 9.3362 1.5253C9.20113 1.66036 9.12457 1.8431 9.123 2.0341V4.9221Z" fill="#193651"/>
<path d="M10.566 26.186L11.682 28.086C11.7094 28.1311 11.7479 28.1684 11.7939 28.1943C11.8398 28.2202 11.8917 28.2338 11.9445 28.2338C11.9973 28.2338 12.0491 28.2202 12.0951 28.1943C12.1411 28.1684 12.1796 28.1311 12.207 28.086L13.323 26.186H10.566Z" fill="#193651"/>
<path d="M11.945 28.877C11.7776 28.8691 11.614 28.8238 11.4664 28.7443C11.3188 28.6649 11.1909 28.5534 11.092 28.418L9.45099 25.53H14.439L12.798 28.418C12.6991 28.5534 12.5712 28.6649 12.4236 28.7443C12.276 28.8238 12.1124 28.8691 11.945 28.877ZM11.745 26.843L11.945 27.237L12.145 26.843H11.745Z" fill="#193651"/>
<path d="M33.471 19.0979H25.727V20.4109H33.471V19.0979Z" fill="#193651"/>
<path d="M33.471 22.248H25.727V23.561H33.471V22.248Z" fill="#193651"/>
<path d="M33.471 25.3989H25.727V26.7119H33.471V25.3989Z" fill="#193651"/>
<path d="M33.471 28.5491H25.727V29.8621H33.471V28.5491Z" fill="#193651"/>
<path d="M33.471 31.699H25.727V33.012H33.471V31.699Z" fill="#193651"/>
</svg>
