<svg width="30" height="30" viewBox="0 0 30 30" fill="none" xmlns="http://www.w3.org/2000/svg">
<path d="M21.1401 18.7899H20.0501V19.0099C20.0001 19.3899 19.9101 19.7599 19.8001 20.1299L16.2101 23.7299C16.1501 23.7299 16.1001 23.7499 16.0401 23.7599C15.9001 23.7899 15.7501 23.8099 15.6101 23.8299H15.4201L15.4301 24.0199C15.2601 24.0599 15.0901 24.0799 14.9201 24.0999L14.7001 24.1199L14.7401 25.1999L14.5301 25.3999C14.5001 25.3399 14.4901 25.2799 14.4901 25.2099V23.7999H14.3001C14.0901 23.7699 13.8801 23.7399 13.6701 23.6899C13.5101 23.6599 13.3501 23.6099 13.2001 23.5599C13.1701 23.5599 13.1401 23.5399 13.1001 23.5299C12.9601 23.4799 12.8201 23.4199 12.6901 23.3499C12.6401 23.3299 12.6001 23.3099 12.5601 23.2899C12.5301 23.0999 12.5001 22.9199 12.4901 22.7299C12.4801 22.5199 12.4701 22.3099 12.4901 22.0999C12.5501 20.8899 13.0401 19.7099 13.9601 18.7899C15.3001 17.4499 17.2201 17.0199 18.9301 17.4999C18.9901 17.5199 19.0401 17.5299 19.1001 17.5499C19.4801 17.6699 19.8501 17.8299 20.2001 18.0599V18.1599H20.3501C20.6301 18.3299 20.8901 18.5399 21.1401 18.7899Z" fill="#38A3A5"/>
<path d="M29.0302 5.06982H0.970215V8.99982H29.0302V5.06982Z" fill="#38A3A5"/>
<path d="M6.01 11.66C5.91 11.56 5.79 11.51 5.66 11.51H2.84C2.57 11.51 2.35 11.73 2.35 12V14.82C2.35 15.07 2.53 15.27 2.76 15.31H5.66C5.93 15.31 6.15 15.09 6.15 14.82V12C6.15 11.87 6.1 11.75 6.01 11.66ZM3.34 14.38V12.51L5.17 12.47L5.21 14.34L3.34 14.38ZM27.5 11.66C27.4 11.56 27.28 11.51 27.15 11.51H24.33C24.06 11.51 23.84 11.73 23.84 12V14.82C23.84 15.07 24.02 15.27 24.25 15.31H27.15C27.28 15.31 27.4 15.26 27.5 15.16C27.59 15.07 27.64 14.95 27.64 14.82V12C27.64 11.87 27.59 11.75 27.5 11.66ZM24.83 14.38V12.51L26.66 12.47L26.7 14.34L24.83 14.38ZM5.66 16.57H2.84C2.57 16.57 2.35 16.79 2.35 17.07V19.89C2.35 20.13 2.53 20.33 2.76 20.37H5.66C5.93 20.37 6.15 20.15 6.15 19.88V17.07C6.15 16.79 5.93 16.57 5.66 16.57ZM3.34 19.44V17.57L5.17 17.53L5.21 19.4L3.34 19.44ZM27.15 16.57H24.33C24.06 16.57 23.84 16.79 23.84 17.07V19.89C23.84 20.13 24.02 20.33 24.25 20.37H27.15C27.28 20.37 27.4 20.32 27.5 20.23C27.59 20.13 27.64 20.01 27.64 19.88V17.07C27.64 16.79 27.42 16.57 27.15 16.57ZM24.83 19.44V17.57L26.66 17.53L26.7 19.4L24.83 19.44ZM5.66 21.64H2.84C2.57 21.64 2.35 21.86 2.35 22.13V24.95C2.35 25.22 2.57 25.44 2.84 25.44H5.66C5.93 25.44 6.15 25.22 6.15 24.95V22.13C6.15 21.86 5.93 21.64 5.66 21.64ZM3.34 24.5V22.64L5.17 22.59L5.21 24.46L3.34 24.5ZM27.15 21.64H24.33C24.06 21.64 23.84 21.86 23.84 22.13V24.95C23.84 25.22 24.06 25.44 24.33 25.44H27.15C27.28 25.44 27.4 25.39 27.5 25.3C27.59 25.2 27.64 25.08 27.64 24.95V22.13C27.64 21.86 27.42 21.64 27.15 21.64ZM24.83 24.5V22.64L26.66 22.59L26.7 24.46L24.83 24.5ZM21.58 18.13L20.35 18.16H20.21V18.06L20.19 17.97C20.07 17.03 19.69 16.13 19.11 15.43L18.99 15.29L19.99 14.29C20.17 14.11 20.17 13.8 19.98 13.61C19.9 13.52 19.77 13.47 19.64 13.47C19.51 13.47 19.39 13.51 19.3 13.6L18.36 14.59L18.21 14.48C17.46 13.87 16.57 13.51 15.65 13.42H15.47V12.02C15.47 11.75 15.25 11.53 14.98 11.53C14.71 11.53 14.48 11.75 14.48 12.01L14.52 13.36L14.33 13.38C13.39 13.48 12.46 13.88 11.78 14.46L11.64 14.59L10.66 13.61C10.56 13.52 10.44 13.47 10.31 13.47C10.18 13.47 10.06 13.51 9.97 13.6C9.88 13.7 9.83 13.82 9.83 13.96C9.82 14.08 9.87 14.21 9.96 14.29L10.96 15.24L10.85 15.39C10.29 16.15 9.92 17.06 9.82 17.95L9.8 18.13H8.38C8.11 18.13 7.89 18.35 7.89 18.62C7.89 18.89 8.11 19.11 8.38 19.11L9.74 19.08L9.76 19.26C9.87 20.22 10.26 21.15 10.83 21.82L10.96 21.96L9.97 22.93C9.78 23.12 9.78 23.43 9.97 23.62C10.06 23.71 10.18 23.77 10.32 23.77C10.45 23.77 10.57 23.72 10.66 23.63L11.59 22.66L11.74 22.77C11.88 22.88 12.03 22.99 12.19 23.08C12.28 23.14 12.36 23.19 12.45 23.23C12.49 23.25 12.52 23.27 12.56 23.28C12.56 23.28 12.64 23.33 12.69 23.35C12.82 23.42 12.96 23.48 13.1 23.53C13.14 23.54 13.17 23.55 13.2 23.56C13.35 23.61 13.51 23.66 13.67 23.69C13.88 23.74 14.09 23.77 14.3 23.79H14.49V25.21C14.49 25.28 14.5 25.34 14.53 25.4C14.55 25.45 14.57 25.49 14.6 25.52C14.63 25.56 14.67 25.59 14.71 25.62C14.79 25.67 14.88 25.7 14.98 25.7H14.99C15.25 25.7 15.46 25.48 15.46 25.22V24.8L15.43 24.02V23.84L15.61 23.83C15.75 23.81 15.9 23.79 16.04 23.76C16.1 23.75 16.15 23.74 16.21 23.73C16.35 23.7 16.49 23.66 16.63 23.62C17.2 23.43 17.72 23.15 18.17 22.78L18.31 22.67L19.3 23.64C19.39 23.73 19.51 23.78 19.64 23.78C19.77 23.78 19.89 23.73 19.98 23.64C20.07 23.54 20.12 23.42 20.12 23.29C20.12 23.16 20.07 23.04 19.98 22.95L18.99 22.01L19.1 21.87C19.48 21.38 19.76 20.85 19.95 20.3C20.05 19.97 20.13 19.64 20.16 19.3V19.11H21.58C21.85 19.11 22.07 18.89 22.07 18.62C22.07 18.35 21.85 18.13 21.58 18.13ZM14.98 22.87H14.88C14.39 22.87 13.9 22.78 13.45 22.61C13.11 22.48 12.78 22.31 12.49 22.1C12.33 21.99 12.19 21.87 12.05 21.73C11.21 20.92 10.72 19.8 10.72 18.65C10.72 17.5 11.16 16.42 11.96 15.61C12.77 14.78 13.84 14.33 14.98 14.33H15.19C17.45 14.48 18.71 15.94 19.1 17.55C19.13 17.69 19.16 17.82 19.18 17.96C19.21 18.19 19.23 18.42 19.23 18.65C19.23 20.64 17.9 22.81 14.98 22.87ZM27.15 21.64H24.33C24.06 21.64 23.84 21.86 23.84 22.13V24.95C23.84 25.22 24.06 25.44 24.33 25.44H27.15C27.28 25.44 27.4 25.39 27.5 25.3C27.59 25.2 27.64 25.08 27.64 24.95V22.13C27.64 21.86 27.42 21.64 27.15 21.64ZM24.83 24.5V22.64L26.66 22.59L26.7 24.46L24.83 24.5ZM27.15 16.57H24.33C24.06 16.57 23.84 16.79 23.84 17.07V19.89C23.84 20.13 24.02 20.33 24.25 20.37H27.15C27.28 20.37 27.4 20.32 27.5 20.23C27.59 20.13 27.64 20.01 27.64 19.88V17.07C27.64 16.79 27.42 16.57 27.15 16.57ZM24.83 19.44V17.57L26.66 17.53L26.7 19.4L24.83 19.44ZM27.5 11.66C27.4 11.56 27.28 11.51 27.15 11.51H24.33C24.06 11.51 23.84 11.73 23.84 12V14.82C23.84 15.07 24.02 15.27 24.25 15.31H27.15C27.28 15.31 27.4 15.26 27.5 15.16C27.59 15.07 27.64 14.95 27.64 14.82V12C27.64 11.87 27.59 11.75 27.5 11.66ZM24.83 14.38V12.51L26.66 12.47L26.7 14.34L24.83 14.38ZM21.58 18.13L20.35 18.16H20.21V18.06L20.19 17.97C20.07 17.03 19.69 16.13 19.11 15.43L18.99 15.29L19.99 14.29C20.17 14.11 20.17 13.8 19.98 13.61C19.9 13.52 19.77 13.47 19.64 13.47C19.51 13.47 19.39 13.51 19.3 13.6L18.36 14.59L18.21 14.48C17.46 13.87 16.57 13.51 15.65 13.42H15.47V12.02C15.47 11.75 15.25 11.53 14.98 11.53C14.71 11.53 14.48 11.75 14.48 12.01L14.52 13.36L14.33 13.38C13.39 13.48 12.46 13.88 11.78 14.46L11.64 14.59L10.66 13.61C10.56 13.52 10.44 13.47 10.31 13.47C10.18 13.47 10.06 13.51 9.97 13.6C9.88 13.7 9.83 13.82 9.83 13.96C9.82 14.08 9.87 14.21 9.96 14.29L10.96 15.24L10.85 15.39C10.29 16.15 9.92 17.06 9.82 17.95L9.8 18.13H8.38C8.11 18.13 7.89 18.35 7.89 18.62C7.89 18.89 8.11 19.11 8.38 19.11L9.74 19.08L9.76 19.26C9.87 20.22 10.26 21.15 10.83 21.82L10.96 21.96L9.97 22.93C9.78 23.12 9.78 23.43 9.97 23.62C10.06 23.71 10.18 23.77 10.32 23.77C10.45 23.77 10.57 23.72 10.66 23.63L11.59 22.66L11.74 22.77C11.88 22.88 12.03 22.99 12.19 23.08C12.28 23.14 12.36 23.19 12.45 23.23C12.49 23.25 12.52 23.27 12.56 23.28C12.56 23.28 12.64 23.33 12.69 23.35C12.82 23.42 12.96 23.48 13.1 23.53C13.14 23.54 13.17 23.55 13.2 23.56C13.35 23.61 13.51 23.66 13.67 23.69C13.88 23.74 14.09 23.77 14.3 23.79H14.49V25.21C14.49 25.28 14.5 25.34 14.53 25.4C14.55 25.45 14.57 25.49 14.6 25.52C14.63 25.56 14.67 25.59 14.71 25.62C14.79 25.67 14.88 25.7 14.98 25.7H14.99C15.25 25.7 15.46 25.48 15.46 25.22V24.8L15.43 24.02V23.84L15.61 23.83C15.75 23.81 15.9 23.79 16.04 23.76C16.1 23.75 16.15 23.74 16.21 23.73C16.35 23.7 16.49 23.66 16.63 23.62C17.2 23.43 17.72 23.15 18.17 22.78L18.31 22.67L19.3 23.64C19.39 23.73 19.51 23.78 19.64 23.78C19.77 23.78 19.89 23.73 19.98 23.64C20.07 23.54 20.12 23.42 20.12 23.29C20.12 23.16 20.07 23.04 19.98 22.95L18.99 22.01L19.1 21.87C19.48 21.38 19.76 20.85 19.95 20.3C20.05 19.97 20.13 19.64 20.16 19.3V19.11H21.58C21.85 19.11 22.07 18.89 22.07 18.62C22.07 18.35 21.85 18.13 21.58 18.13ZM14.98 22.87H14.88C14.39 22.87 13.9 22.78 13.45 22.61C13.11 22.48 12.78 22.31 12.49 22.1C12.33 21.99 12.19 21.87 12.05 21.73C11.21 20.92 10.72 19.8 10.72 18.65C10.72 17.5 11.16 16.42 11.96 15.61C12.77 14.78 13.84 14.33 14.98 14.33H15.19C17.45 14.48 18.71 15.94 19.1 17.55C19.13 17.69 19.16 17.82 19.18 17.96C19.21 18.19 19.23 18.42 19.23 18.65C19.23 20.64 17.9 22.81 14.98 22.87ZM5.66 21.64H2.84C2.57 21.64 2.35 21.86 2.35 22.13V24.95C2.35 25.22 2.57 25.44 2.84 25.44H5.66C5.93 25.44 6.15 25.22 6.15 24.95V22.13C6.15 21.86 5.93 21.64 5.66 21.64ZM3.34 24.5V22.64L5.17 22.59L5.21 24.46L3.34 24.5ZM5.66 16.57H2.84C2.57 16.57 2.35 16.79 2.35 17.07V19.89C2.35 20.13 2.53 20.33 2.76 20.37H5.66C5.93 20.37 6.15 20.15 6.15 19.88V17.07C6.15 16.79 5.93 16.57 5.66 16.57ZM3.34 19.44V17.57L5.17 17.53L5.21 19.4L3.34 19.44ZM6.01 11.66C5.91 11.56 5.79 11.51 5.66 11.51H2.84C2.57 11.51 2.35 11.73 2.35 12V14.82C2.35 15.07 2.53 15.27 2.76 15.31H5.66C5.93 15.31 6.15 15.09 6.15 14.82V12C6.15 11.87 6.1 11.75 6.01 11.66ZM3.34 14.38V12.51L5.17 12.47L5.21 14.34L3.34 14.38ZM6.01 11.66C5.91 11.56 5.79 11.51 5.66 11.51H2.84C2.57 11.51 2.35 11.73 2.35 12V14.82C2.35 15.07 2.53 15.27 2.76 15.31H5.66C5.93 15.31 6.15 15.09 6.15 14.82V12C6.15 11.87 6.1 11.75 6.01 11.66ZM3.34 14.38V12.51L5.17 12.47L5.21 14.34L3.34 14.38ZM5.66 16.57H2.84C2.57 16.57 2.35 16.79 2.35 17.07V19.89C2.35 20.13 2.53 20.33 2.76 20.37H5.66C5.93 20.37 6.15 20.15 6.15 19.88V17.07C6.15 16.79 5.93 16.57 5.66 16.57ZM3.34 19.44V17.57L5.17 17.53L5.21 19.4L3.34 19.44ZM5.66 21.64H2.84C2.57 21.64 2.35 21.86 2.35 22.13V24.95C2.35 25.22 2.57 25.44 2.84 25.44H5.66C5.93 25.44 6.15 25.22 6.15 24.95V22.13C6.15 21.86 5.93 21.64 5.66 21.64ZM3.34 24.5V22.64L5.17 22.59L5.21 24.46L3.34 24.5ZM21.58 18.13L20.35 18.16H20.21V18.06L20.19 17.97C20.07 17.03 19.69 16.13 19.11 15.43L18.99 15.29L19.99 14.29C20.17 14.11 20.17 13.8 19.98 13.61C19.9 13.52 19.77 13.47 19.64 13.47C19.51 13.47 19.39 13.51 19.3 13.6L18.36 14.59L18.21 14.48C17.46 13.87 16.57 13.51 15.65 13.42H15.47V12.02C15.47 11.75 15.25 11.53 14.98 11.53C14.71 11.53 14.48 11.75 14.48 12.01L14.52 13.36L14.33 13.38C13.39 13.48 12.46 13.88 11.78 14.46L11.64 14.59L10.66 13.61C10.56 13.52 10.44 13.47 10.31 13.47C10.18 13.47 10.06 13.51 9.97 13.6C9.88 13.7 9.83 13.82 9.83 13.96C9.82 14.08 9.87 14.21 9.96 14.29L10.96 15.24L10.85 15.39C10.29 16.15 9.92 17.06 9.82 17.95L9.8 18.13H8.38C8.11 18.13 7.89 18.35 7.89 18.62C7.89 18.89 8.11 19.11 8.38 19.11L9.74 19.08L9.76 19.26C9.87 20.22 10.26 21.15 10.83 21.82L10.96 21.96L9.97 22.93C9.78 23.12 9.78 23.43 9.97 23.62C10.06 23.71 10.18 23.77 10.32 23.77C10.45 23.77 10.57 23.72 10.66 23.63L11.59 22.66L11.74 22.77C11.88 22.88 12.03 22.99 12.19 23.08C12.28 23.14 12.36 23.19 12.45 23.23C12.49 23.25 12.52 23.27 12.56 23.28C12.56 23.28 12.64 23.33 12.69 23.35C12.82 23.42 12.96 23.48 13.1 23.53C13.14 23.54 13.17 23.55 13.2 23.56C13.35 23.61 13.51 23.66 13.67 23.69C13.88 23.74 14.09 23.77 14.3 23.79H14.49V25.21C14.49 25.28 14.5 25.34 14.53 25.4C14.55 25.45 14.57 25.49 14.6 25.52C14.63 25.56 14.67 25.59 14.71 25.62C14.79 25.67 14.88 25.7 14.98 25.7H14.99C15.25 25.7 15.46 25.48 15.46 25.22V24.8L15.43 24.02V23.84L15.61 23.83C15.75 23.81 15.9 23.79 16.04 23.76C16.1 23.75 16.15 23.74 16.21 23.73C16.35 23.7 16.49 23.66 16.63 23.62C17.2 23.43 17.72 23.15 18.17 22.78L18.31 22.67L19.3 23.64C19.39 23.73 19.51 23.78 19.64 23.78C19.77 23.78 19.89 23.73 19.98 23.64C20.07 23.54 20.12 23.42 20.12 23.29C20.12 23.16 20.07 23.04 19.98 22.95L18.99 22.01L19.1 21.87C19.48 21.38 19.76 20.85 19.95 20.3C20.05 19.97 20.13 19.64 20.16 19.3V19.11H21.58C21.85 19.11 22.07 18.89 22.07 18.62C22.07 18.35 21.85 18.13 21.58 18.13ZM14.98 22.87H14.88C14.39 22.87 13.9 22.78 13.45 22.61C13.11 22.48 12.78 22.31 12.49 22.1C12.33 21.99 12.19 21.87 12.05 21.73C11.21 20.92 10.72 19.8 10.72 18.65C10.72 17.5 11.16 16.42 11.96 15.61C12.77 14.78 13.84 14.33 14.98 14.33H15.19C17.45 14.48 18.71 15.94 19.1 17.55C19.13 17.69 19.16 17.82 19.18 17.96C19.21 18.19 19.23 18.42 19.23 18.65C19.23 20.64 17.9 22.81 14.98 22.87ZM27.5 11.66C27.4 11.56 27.28 11.51 27.15 11.51H24.33C24.06 11.51 23.84 11.73 23.84 12V14.82C23.84 15.07 24.02 15.27 24.25 15.31H27.15C27.28 15.31 27.4 15.26 27.5 15.16C27.59 15.07 27.64 14.95 27.64 14.82V12C27.64 11.87 27.59 11.75 27.5 11.66ZM24.83 14.38V12.51L26.66 12.47L26.7 14.34L24.83 14.38ZM27.15 16.57H24.33C24.06 16.57 23.84 16.79 23.84 17.07V19.89C23.84 20.13 24.02 20.33 24.25 20.37H27.15C27.28 20.37 27.4 20.32 27.5 20.23C27.59 20.13 27.64 20.01 27.64 19.88V17.07C27.64 16.79 27.42 16.57 27.15 16.57ZM24.83 19.44V17.57L26.66 17.53L26.7 19.4L24.83 19.44ZM27.15 21.64H24.33C24.06 21.64 23.84 21.86 23.84 22.13V24.95C23.84 25.22 24.06 25.44 24.33 25.44H27.15C27.28 25.44 27.4 25.39 27.5 25.3C27.59 25.2 27.64 25.08 27.64 24.95V22.13C27.64 21.86 27.42 21.64 27.15 21.64ZM24.83 24.5V22.64L26.66 22.59L26.7 24.46L24.83 24.5ZM27.15 21.64H24.33C24.06 21.64 23.84 21.86 23.84 22.13V24.95C23.84 25.22 24.06 25.44 24.33 25.44H27.15C27.28 25.44 27.4 25.39 27.5 25.3C27.59 25.2 27.64 25.08 27.64 24.95V22.13C27.64 21.86 27.42 21.64 27.15 21.64ZM24.83 24.5V22.64L26.66 22.59L26.7 24.46L24.83 24.5ZM27.15 16.57H24.33C24.06 16.57 23.84 16.79 23.84 17.07V19.89C23.84 20.13 24.02 20.33 24.25 20.37H27.15C27.28 20.37 27.4 20.32 27.5 20.23C27.59 20.13 27.64 20.01 27.64 19.88V17.07C27.64 16.79 27.42 16.57 27.15 16.57ZM24.83 19.44V17.57L26.66 17.53L26.7 19.4L24.83 19.44ZM27.5 11.66C27.4 11.56 27.28 11.51 27.15 11.51H24.33C24.06 11.51 23.84 11.73 23.84 12V14.82C23.84 15.07 24.02 15.27 24.25 15.31H27.15C27.28 15.31 27.4 15.26 27.5 15.16C27.59 15.07 27.64 14.95 27.64 14.82V12C27.64 11.87 27.59 11.75 27.5 11.66ZM24.83 14.38V12.51L26.66 12.47L26.7 14.34L24.83 14.38ZM21.58 18.13L20.35 18.16H20.21V18.06L20.19 17.97C20.07 17.03 19.69 16.13 19.11 15.43L18.99 15.29L19.99 14.29C20.17 14.11 20.17 13.8 19.98 13.61C19.9 13.52 19.77 13.47 19.64 13.47C19.51 13.47 19.39 13.51 19.3 13.6L18.36 14.59L18.21 14.48C17.46 13.87 16.57 13.51 15.65 13.42H15.47V12.02C15.47 11.75 15.25 11.53 14.98 11.53C14.71 11.53 14.48 11.75 14.48 12.01L14.52 13.36L14.33 13.38C13.39 13.48 12.46 13.88 11.78 14.46L11.64 14.59L10.66 13.61C10.56 13.52 10.44 13.47 10.31 13.47C10.18 13.47 10.06 13.51 9.97 13.6C9.88 13.7 9.83 13.82 9.83 13.96C9.82 14.08 9.87 14.21 9.96 14.29L10.96 15.24L10.85 15.39C10.29 16.15 9.92 17.06 9.82 17.95L9.8 18.13H8.38C8.11 18.13 7.89 18.35 7.89 18.62C7.89 18.89 8.11 19.11 8.38 19.11L9.74 19.08L9.76 19.26C9.87 20.22 10.26 21.15 10.83 21.82L10.96 21.96L9.97 22.93C9.78 23.12 9.78 23.43 9.97 23.62C10.06 23.71 10.18 23.77 10.32 23.77C10.45 23.77 10.57 23.72 10.66 23.63L11.59 22.66L11.74 22.77C11.88 22.88 12.03 22.99 12.19 23.08C12.28 23.14 12.36 23.19 12.45 23.23C12.49 23.25 12.52 23.27 12.56 23.28C12.56 23.28 12.64 23.33 12.69 23.35C12.82 23.42 12.96 23.48 13.1 23.53C13.14 23.54 13.17 23.55 13.2 23.56C13.35 23.61 13.51 23.66 13.67 23.69C13.88 23.74 14.09 23.77 14.3 23.79H14.49V25.21C14.49 25.28 14.5 25.34 14.53 25.4C14.55 25.45 14.57 25.49 14.6 25.52C14.63 25.56 14.67 25.59 14.71 25.62C14.79 25.67 14.88 25.7 14.98 25.7H14.99C15.25 25.7 15.46 25.48 15.46 25.22V24.8L15.43 24.02V23.84L15.61 23.83C15.75 23.81 15.9 23.79 16.04 23.76C16.1 23.75 16.15 23.74 16.21 23.73C16.35 23.7 16.49 23.66 16.63 23.62C17.2 23.43 17.72 23.15 18.17 22.78L18.31 22.67L19.3 23.64C19.39 23.73 19.51 23.78 19.64 23.78C19.77 23.78 19.89 23.73 19.98 23.64C20.07 23.54 20.12 23.42 20.12 23.29C20.12 23.16 20.07 23.04 19.98 22.95L18.99 22.01L19.1 21.87C19.48 21.38 19.76 20.85 19.95 20.3C20.05 19.97 20.13 19.64 20.16 19.3V19.11H21.58C21.85 19.11 22.07 18.89 22.07 18.62C22.07 18.35 21.85 18.13 21.58 18.13ZM14.98 22.87H14.88C14.39 22.87 13.9 22.78 13.45 22.61C13.11 22.48 12.78 22.31 12.49 22.1C12.33 21.99 12.19 21.87 12.05 21.73C11.21 20.92 10.72 19.8 10.72 18.65C10.72 17.5 11.16 16.42 11.96 15.61C12.77 14.78 13.84 14.33 14.98 14.33H15.19C17.45 14.48 18.71 15.94 19.1 17.55C19.13 17.69 19.16 17.82 19.18 17.96C19.21 18.19 19.23 18.42 19.23 18.65C19.23 20.64 17.9 22.81 14.98 22.87ZM5.66 21.64H2.84C2.57 21.64 2.35 21.86 2.35 22.13V24.95C2.35 25.22 2.57 25.44 2.84 25.44H5.66C5.93 25.44 6.15 25.22 6.15 24.95V22.13C6.15 21.86 5.93 21.64 5.66 21.64ZM3.34 24.5V22.64L5.17 22.59L5.21 24.46L3.34 24.5ZM5.66 16.57H2.84C2.57 16.57 2.35 16.79 2.35 17.07V19.89C2.35 20.13 2.53 20.33 2.76 20.37H5.66C5.93 20.37 6.15 20.15 6.15 19.88V17.07C6.15 16.79 5.93 16.57 5.66 16.57ZM3.34 19.44V17.57L5.17 17.53L5.21 19.4L3.34 19.44ZM6.01 11.66C5.91 11.56 5.79 11.51 5.66 11.51H2.84C2.57 11.51 2.35 11.73 2.35 12V14.82C2.35 15.07 2.53 15.27 2.76 15.31H5.66C5.93 15.31 6.15 15.09 6.15 14.82V12C6.15 11.87 6.1 11.75 6.01 11.66ZM3.34 14.38V12.51L5.17 12.47L5.21 14.34L3.34 14.38ZM6.01 11.66C5.91 11.56 5.79 11.51 5.66 11.51H2.84C2.57 11.51 2.35 11.73 2.35 12V14.82C2.35 15.07 2.53 15.27 2.76 15.31H5.66C5.93 15.31 6.15 15.09 6.15 14.82V12C6.15 11.87 6.1 11.75 6.01 11.66ZM3.34 14.38V12.51L5.17 12.47L5.21 14.34L3.34 14.38ZM5.66 16.57H2.84C2.57 16.57 2.35 16.79 2.35 17.07V19.89C2.35 20.13 2.53 20.33 2.76 20.37H5.66C5.93 20.37 6.15 20.15 6.15 19.88V17.07C6.15 16.79 5.93 16.57 5.66 16.57ZM3.34 19.44V17.57L5.17 17.53L5.21 19.4L3.34 19.44ZM5.66 21.64H2.84C2.57 21.64 2.35 21.86 2.35 22.13V24.95C2.35 25.22 2.57 25.44 2.84 25.44H5.66C5.93 25.44 6.15 25.22 6.15 24.95V22.13C6.15 21.86 5.93 21.64 5.66 21.64ZM3.34 24.5V22.64L5.17 22.59L5.21 24.46L3.34 24.5ZM21.58 18.13L20.35 18.16H20.21V18.06L20.19 17.97C20.07 17.03 19.69 16.13 19.11 15.43L18.99 15.29L19.99 14.29C20.17 14.11 20.17 13.8 19.98 13.61C19.9 13.52 19.77 13.47 19.64 13.47C19.51 13.47 19.39 13.51 19.3 13.6L18.36 14.59L18.21 14.48C17.46 13.87 16.57 13.51 15.65 13.42H15.47V12.02C15.47 11.75 15.25 11.53 14.98 11.53C14.71 11.53 14.48 11.75 14.48 12.01L14.52 13.36L14.33 13.38C13.39 13.48 12.46 13.88 11.78 14.46L11.64 14.59L10.66 13.61C10.56 13.52 10.44 13.47 10.31 13.47C10.18 13.47 10.06 13.51 9.97 13.6C9.88 13.7 9.83 13.82 9.83 13.96C9.82 14.08 9.87 14.21 9.96 14.29L10.96 15.24L10.85 15.39C10.29 16.15 9.92 17.06 9.82 17.95L9.8 18.13H8.38C8.11 18.13 7.89 18.35 7.89 18.62C7.89 18.89 8.11 19.11 8.38 19.11L9.74 19.08L9.76 19.26C9.87 20.22 10.26 21.15 10.83 21.82L10.96 21.96L9.97 22.93C9.78 23.12 9.78 23.43 9.97 23.62C10.06 23.71 10.18 23.77 10.32 23.77C10.45 23.77 10.57 23.72 10.66 23.63L11.59 22.66L11.74 22.77C11.88 22.88 12.03 22.99 12.19 23.08C12.28 23.14 12.36 23.19 12.45 23.23C12.49 23.25 12.52 23.27 12.56 23.29C12.6 23.31 12.64 23.33 12.69 23.35C12.82 23.42 12.96 23.48 13.1 23.53C13.14 23.54 13.17 23.55 13.2 23.56C13.35 23.61 13.51 23.66 13.67 23.69C13.88 23.74 14.09 23.77 14.3 23.79H14.49V25.21C14.49 25.28 14.5 25.34 14.53 25.4C14.55 25.45 14.57 25.49 14.6 25.52C14.63 25.56 14.67 25.59 14.71 25.62C14.79 25.67 14.88 25.7 14.98 25.7H14.99C15.25 25.7 15.46 25.48 15.46 25.22V24.8L15.43 24.02V23.84L15.61 23.83C15.75 23.81 15.9 23.79 16.04 23.76C16.1 23.75 16.15 23.74 16.21 23.73C16.35 23.7 16.49 23.66 16.63 23.62C17.2 23.43 17.72 23.15 18.17 22.78L18.31 22.67L19.3 23.64C19.39 23.73 19.51 23.78 19.64 23.78C19.77 23.78 19.89 23.73 19.98 23.64C20.07 23.54 20.12 23.42 20.12 23.29C20.12 23.16 20.07 23.04 19.98 22.95L18.99 22.01L19.1 21.87C19.48 21.38 19.76 20.85 19.95 20.3C20.05 19.97 20.13 19.64 20.16 19.3V19.11H21.58C21.85 19.11 22.07 18.89 22.07 18.62C22.07 18.35 21.85 18.13 21.58 18.13ZM14.98 22.87H14.88C14.39 22.87 13.9 22.78 13.45 22.61C13.11 22.48 12.78 22.31 12.49 22.1C12.33 21.99 12.19 21.87 12.05 21.73C11.21 20.92 10.72 19.8 10.72 18.65C10.72 17.5 11.16 16.42 11.96 15.61C12.77 14.78 13.84 14.33 14.98 14.33H15.19C17.45 14.48 18.71 15.94 19.1 17.55C19.13 17.69 19.16 17.82 19.18 17.96C19.21 18.19 19.23 18.42 19.23 18.65C19.23 20.64 17.9 22.81 14.98 22.87ZM27.5 11.66C27.4 11.56 27.28 11.51 27.15 11.51H24.33C24.06 11.51 23.84 11.73 23.84 12V14.82C23.84 15.07 24.02 15.27 24.25 15.31H27.15C27.28 15.31 27.4 15.26 27.5 15.16C27.59 15.07 27.64 14.95 27.64 14.82V12C27.64 11.87 27.59 11.75 27.5 11.66ZM24.83 14.38V12.51L26.66 12.47L26.7 14.34L24.83 14.38ZM27.15 16.57H24.33C24.06 16.57 23.84 16.79 23.84 17.07V19.89C23.84 20.13 24.02 20.33 24.25 20.37H27.15C27.28 20.37 27.4 20.32 27.5 20.23C27.59 20.13 27.64 20.01 27.64 19.88V17.07C27.64 16.79 27.42 16.57 27.15 16.57ZM24.83 19.44V17.57L26.66 17.53L26.7 19.4L24.83 19.44ZM27.15 21.64H24.33C24.06 21.64 23.84 21.86 23.84 22.13V24.95C23.84 25.22 24.06 25.44 24.33 25.44H27.15C27.28 25.44 27.4 25.39 27.5 25.3C27.59 25.2 27.64 25.08 27.64 24.95V22.13C27.64 21.86 27.42 21.64 27.15 21.64ZM24.83 24.5V22.64L26.66 22.59L26.7 24.46L24.83 24.5ZM27.15 21.64H24.33C24.06 21.64 23.84 21.86 23.84 22.13V24.95C23.84 25.22 24.06 25.44 24.33 25.44H27.15C27.28 25.44 27.4 25.39 27.5 25.3C27.59 25.2 27.64 25.08 27.64 24.95V22.13C27.64 21.86 27.42 21.64 27.15 21.64ZM24.83 24.5V22.64L26.66 22.59L26.7 24.46L24.83 24.5ZM27.15 16.57H24.33C24.06 16.57 23.84 16.79 23.84 17.07V19.89C23.84 20.13 24.02 20.33 24.25 20.37H27.15C27.28 20.37 27.4 20.32 27.5 20.23C27.59 20.13 27.64 20.01 27.64 19.88V17.07C27.64 16.79 27.42 16.57 27.15 16.57ZM24.83 19.44V17.57L26.66 17.53L26.7 19.4L24.83 19.44ZM27.5 11.66C27.4 11.56 27.28 11.51 27.15 11.51H24.33C24.06 11.51 23.84 11.73 23.84 12V14.82C23.84 15.07 24.02 15.27 24.25 15.31H27.15C27.28 15.31 27.4 15.26 27.5 15.16C27.59 15.07 27.64 14.95 27.64 14.82V12C27.64 11.87 27.59 11.75 27.5 11.66ZM24.83 14.38V12.51L26.66 12.47L26.7 14.34L24.83 14.38ZM21.58 18.13L20.35 18.16H20.21V18.06L20.19 17.97C20.07 17.03 19.69 16.13 19.11 15.43L18.99 15.29L19.99 14.29C20.17 14.11 20.17 13.8 19.98 13.61C19.9 13.52 19.77 13.47 19.64 13.47C19.51 13.47 19.39 13.51 19.3 13.6L18.36 14.59L18.21 14.48C17.46 13.87 16.57 13.51 15.65 13.42H15.47V12.02C15.47 11.75 15.25 11.53 14.98 11.53C14.71 11.53 14.48 11.75 14.48 12.01L14.52 13.36L14.33 13.38C13.39 13.48 12.46 13.88 11.78 14.46L11.64 14.59L10.66 13.61C10.56 13.52 10.44 13.47 10.31 13.47C10.18 13.47 10.06 13.51 9.97 13.6C9.88 13.7 9.83 13.82 9.83 13.96C9.82 14.08 9.87 14.21 9.96 14.29L10.96 15.24L10.85 15.39C10.29 16.15 9.92 17.06 9.82 17.95L9.8 18.13H8.38C8.11 18.13 7.89 18.35 7.89 18.62C7.89 18.89 8.11 19.11 8.38 19.11L9.74 19.08L9.76 19.26C9.87 20.22 10.26 21.15 10.83 21.82L10.96 21.96L9.97 22.93C9.78 23.12 9.78 23.43 9.97 23.62C10.06 23.71 10.18 23.77 10.32 23.77C10.45 23.77 10.57 23.72 10.66 23.63L11.59 22.66L11.74 22.77C11.88 22.88 12.03 22.99 12.19 23.08C12.28 23.14 12.36 23.19 12.45 23.23C12.49 23.25 12.52 23.27 12.56 23.29C12.6 23.31 12.64 23.33 12.69 23.35C12.82 23.42 12.96 23.48 13.1 23.53C13.14 23.54 13.17 23.55 13.2 23.56C13.35 23.61 13.51 23.66 13.67 23.69C13.88 23.74 14.09 23.77 14.3 23.79H14.49V25.21C14.49 25.28 14.5 25.34 14.53 25.4C14.55 25.45 14.57 25.49 14.6 25.52C14.63 25.56 14.67 25.59 14.71 25.62C14.79 25.67 14.88 25.7 14.98 25.7H14.99C15.25 25.7 15.46 25.48 15.46 25.22V24.8L15.43 24.02V23.84L15.61 23.83C15.75 23.81 15.9 23.79 16.04 23.76C16.1 23.75 16.15 23.74 16.21 23.73C16.35 23.7 16.49 23.66 16.63 23.62C17.2 23.43 17.72 23.15 18.17 22.78L18.31 22.67L19.3 23.64C19.39 23.73 19.51 23.78 19.64 23.78C19.77 23.78 19.89 23.73 19.98 23.64C20.07 23.54 20.12 23.42 20.12 23.29C20.12 23.16 20.07 23.04 19.98 22.95L18.99 22.01L19.1 21.87C19.48 21.38 19.76 20.85 19.95 20.3C20.05 19.97 20.13 19.64 20.16 19.3V19.11H21.58C21.85 19.11 22.07 18.89 22.07 18.62C22.07 18.35 21.85 18.13 21.58 18.13ZM14.98 22.87H14.88C14.39 22.87 13.9 22.78 13.45 22.61C13.11 22.48 12.78 22.31 12.49 22.1C12.33 21.99 12.19 21.87 12.05 21.73C11.21 20.92 10.72 19.8 10.72 18.65C10.72 17.5 11.16 16.42 11.96 15.61C12.77 14.78 13.84 14.33 14.98 14.33H15.19C17.45 14.48 18.71 15.94 19.1 17.55C19.13 17.69 19.16 17.82 19.18 17.96C19.21 18.19 19.23 18.42 19.23 18.65C19.23 20.64 17.9 22.81 14.98 22.87ZM5.66 21.64H2.84C2.57 21.64 2.35 21.86 2.35 22.13V24.95C2.35 25.22 2.57 25.44 2.84 25.44H5.66C5.93 25.44 6.15 25.22 6.15 24.95V22.13C6.15 21.86 5.93 21.64 5.66 21.64ZM3.34 24.5V22.64L5.17 22.59L5.21 24.46L3.34 24.5ZM5.66 16.57H2.84C2.57 16.57 2.35 16.79 2.35 17.07V19.89C2.35 20.13 2.53 20.33 2.76 20.37H5.66C5.93 20.37 6.15 20.15 6.15 19.88V17.07C6.15 16.79 5.93 16.57 5.66 16.57ZM3.34 19.44V17.57L5.17 17.53L5.21 19.4L3.34 19.44ZM5.66 11.51H2.84C2.57 11.51 2.35 11.73 2.35 12V14.82C2.35 15.07 2.53 15.27 2.76 15.31H5.66C5.93 15.31 6.15 15.09 6.15 14.82V12C6.15 11.87 6.1 11.75 6.01 11.66C5.91 11.56 5.79 11.51 5.66 11.51ZM3.34 14.38V12.51L5.17 12.47L5.21 14.34L3.34 14.38ZM28.27 4.33L23.27 4.36V3.65C23.26 2.73 22.52 2.01 21.6 2C20.69 2 19.94 2.75 19.93 3.65L19.98 4.33L16.66 4.37V3.66C16.63 2.76 15.91 2.06 14.99 2.04C14.09 2.04 13.34 2.77 13.32 3.65L13.37 4.34L10.05 4.38V3.66C10.04 2.75 9.3 2.03 8.38 2.02C7.48 2.02 6.73 2.76 6.71 3.65L6.76 4.34H1.72C0.77 4.34 0 5.12 0 6.07V26.75C0 27.64 0.64 28.35 1.5 28.45H1.52H28.27C29.22 28.45 30 27.68 30 26.73V6.06C30 5.1 29.22 4.33 28.27 4.33ZM20.91 3.63C20.92 3.27 21.21 3 21.56 3H21.67C22.03 3.01 22.3 3.31 22.29 3.65L22.33 4.34L20.91 4.38V3.63ZM14.3 3.68C14.31 3.32 14.58 3.03 14.95 2.98H14.99L15 2.97C15.37 2.97 15.68 3.29 15.68 3.65L15.72 4.34L14.3 4.38V3.68ZM7.71 3.63C7.72 3.27 8 3 8.36 3H8.46C8.64 3 8.79 3.07 8.92 3.21C9.03 3.34 9.08 3.5 9.08 3.65L9.13 4.34L7.71 4.38V3.63ZM29 26.75C29 27.17 28.67 27.5 28.25 27.5H1.72C1.31 27.5 0.97 27.17 0.97 26.75V26.55L0.98 9.73L29 9.7V26.75ZM0.97 8.79V6.08C0.97 5.67 1.3 5.34 1.71 5.33L6.7 5.3V7.04C6.7 7.31 6.92 7.53 7.19 7.53C7.46 7.53 7.68 7.31 7.68 7.04L7.64 5.33L13.31 5.3V7.04C13.31 7.31 13.53 7.53 13.8 7.53C14.07 7.53 14.29 7.31 14.29 7.04L14.25 5.33L19.91 5.3V7.04C19.91 7.31 20.14 7.53 20.41 7.53C20.68 7.53 20.9 7.31 20.9 7.04L20.86 5.33H28.24C28.66 5.33 28.99 5.67 28.99 6.08L29.03 8.75L0.97 8.79ZM24.33 25.44H27.15C27.28 25.44 27.4 25.39 27.5 25.3C27.59 25.2 27.64 25.08 27.64 24.95V22.13C27.64 21.86 27.42 21.64 27.15 21.64H24.33C24.06 21.64 23.84 21.86 23.84 22.13V24.95C23.84 25.22 24.06 25.44 24.33 25.44ZM24.83 22.64L26.66 22.59L26.7 24.46L24.83 24.5V22.64ZM24.25 20.37H27.15C27.28 20.37 27.4 20.32 27.5 20.23C27.59 20.13 27.64 20.01 27.64 19.88V17.07C27.64 16.79 27.42 16.57 27.15 16.57H24.33C24.06 16.57 23.84 16.79 23.84 17.07V19.89C23.84 20.13 24.02 20.33 24.25 20.37ZM24.83 17.57L26.66 17.53L26.7 19.4L24.83 19.44V17.57ZM24.25 15.31H27.15C27.28 15.31 27.4 15.26 27.5 15.16C27.59 15.07 27.64 14.95 27.64 14.82V12C27.64 11.87 27.59 11.75 27.5 11.66C27.4 11.56 27.28 11.51 27.15 11.51H24.33C24.06 11.51 23.84 11.73 23.84 12V14.82C23.84 15.07 24.02 15.27 24.25 15.31ZM24.83 12.51L26.66 12.47L26.7 14.34L24.83 14.38V12.51ZM8.38 19.11L9.74 19.08L9.76 19.26C9.87 20.22 10.26 21.15 10.83 21.82L10.96 21.96L9.97 22.93C9.78 23.12 9.78 23.43 9.97 23.62C10.06 23.71 10.18 23.77 10.32 23.77C10.45 23.77 10.57 23.72 10.66 23.63L11.59 22.66L11.74 22.77C11.88 22.88 12.03 22.99 12.19 23.08C12.28 23.14 12.36 23.19 12.45 23.23C12.49 23.25 12.52 23.27 12.56 23.29C12.6 23.31 12.64 23.33 12.69 23.35C12.82 23.42 12.96 23.48 13.1 23.53C13.14 23.54 13.17 23.55 13.2 23.56C13.35 23.61 13.51 23.66 13.67 23.69C13.88 23.74 14.09 23.77 14.3 23.79H14.49V25.21C14.49 25.28 14.5 25.34 14.53 25.4C14.55 25.45 14.57 25.49 14.6 25.52C14.63 25.56 14.67 25.59 14.71 25.62C14.79 25.67 14.88 25.7 14.98 25.7H14.99C15.25 25.7 15.46 25.48 15.46 25.22V24.8L15.43 24.02V23.84L15.61 23.83C15.75 23.81 15.9 23.79 16.04 23.76C16.1 23.75 16.15 23.74 16.21 23.73C16.35 23.7 16.49 23.66 16.63 23.62C17.2 23.43 17.72 23.15 18.17 22.78L18.31 22.67L19.3 23.64C19.39 23.73 19.51 23.78 19.64 23.78C19.77 23.78 19.89 23.73 19.98 23.64C20.07 23.54 20.12 23.42 20.12 23.29C20.12 23.16 20.07 23.04 19.98 22.95L18.99 22.01L19.1 21.87C19.48 21.38 19.76 20.85 19.95 20.3C20.05 19.97 20.13 19.64 20.16 19.3V19.11H21.58C21.85 19.11 22.07 18.89 22.07 18.62C22.07 18.35 21.85 18.13 21.58 18.13L20.35 18.16H20.21V18.06L20.19 17.97C20.07 17.03 19.69 16.13 19.11 15.43L18.99 15.29L19.99 14.29C20.17 14.11 20.17 13.8 19.98 13.61C19.9 13.52 19.77 13.47 19.64 13.47C19.51 13.47 19.39 13.51 19.3 13.6L18.36 14.59L18.21 14.48C17.46 13.87 16.57 13.51 15.65 13.42H15.47V12.02C15.47 11.75 15.25 11.53 14.98 11.53C14.71 11.53 14.48 11.75 14.48 12.01L14.52 13.36L14.33 13.38C13.39 13.48 12.46 13.88 11.78 14.46L11.64 14.59L10.66 13.61C10.56 13.52 10.44 13.47 10.31 13.47C10.18 13.47 10.06 13.51 9.97 13.6C9.88 13.7 9.83 13.82 9.83 13.96C9.82 14.08 9.87 14.21 9.96 14.29L10.96 15.24L10.85 15.39C10.29 16.15 9.92 17.06 9.82 17.95L9.8 18.13H8.38C8.11 18.13 7.89 18.35 7.89 18.62C7.89 18.89 8.11 19.11 8.38 19.11ZM11.96 15.61C12.77 14.78 13.84 14.33 14.98 14.33H15.19C17.45 14.48 18.71 15.94 19.1 17.55C19.13 17.69 19.16 17.82 19.18 17.96C19.21 18.19 19.23 18.42 19.23 18.65C19.23 20.64 17.9 22.81 14.98 22.87H14.88C14.39 22.87 13.9 22.78 13.45 22.61C13.11 22.48 12.78 22.31 12.49 22.1C12.33 21.99 12.19 21.87 12.05 21.73C11.21 20.92 10.72 19.8 10.72 18.65C10.72 17.5 11.16 16.42 11.96 15.61ZM2.84 25.44H5.66C5.93 25.44 6.15 25.22 6.15 24.95V22.13C6.15 21.86 5.93 21.64 5.66 21.64H2.84C2.57 21.64 2.35 21.86 2.35 22.13V24.95C2.35 25.22 2.57 25.44 2.84 25.44ZM3.34 22.64L5.17 22.59L5.21 24.46L3.34 24.5V22.64ZM2.76 20.37H5.66C5.93 20.37 6.15 20.15 6.15 19.88V17.07C6.15 16.79 5.93 16.57 5.66 16.57H2.84C2.57 16.57 2.35 16.79 2.35 17.07V19.89C2.35 20.13 2.53 20.33 2.76 20.37ZM3.34 17.57L5.17 17.53L5.21 19.4L3.34 19.44V17.57ZM2.76 15.31H5.66C5.93 15.31 6.15 15.09 6.15 14.82V12C6.15 11.87 6.1 11.75 6.01 11.66C5.91 11.56 5.79 11.51 5.66 11.51H2.84C2.57 11.51 2.35 11.73 2.35 12V14.82C2.35 15.07 2.53 15.27 2.76 15.31ZM3.34 12.51L5.17 12.47L5.21 14.34L3.34 14.38V12.51ZM6.01 11.66C5.91 11.56 5.79 11.51 5.66 11.51H2.84C2.57 11.51 2.35 11.73 2.35 12V14.82C2.35 15.07 2.53 15.27 2.76 15.31H5.66C5.93 15.31 6.15 15.09 6.15 14.82V12C6.15 11.87 6.1 11.75 6.01 11.66ZM3.34 14.38V12.51L5.17 12.47L5.21 14.34L3.34 14.38ZM5.66 16.57H2.84C2.57 16.57 2.35 16.79 2.35 17.07V19.89C2.35 20.13 2.53 20.33 2.76 20.37H5.66C5.93 20.37 6.15 20.15 6.15 19.88V17.07C6.15 16.79 5.93 16.57 5.66 16.57ZM3.34 19.44V17.57L5.17 17.53L5.21 19.4L3.34 19.44ZM5.66 21.64H2.84C2.57 21.64 2.35 21.86 2.35 22.13V24.95C2.35 25.22 2.57 25.44 2.84 25.44H5.66C5.93 25.44 6.15 25.22 6.15 24.95V22.13C6.15 21.86 5.93 21.64 5.66 21.64ZM3.34 24.5V22.64L5.17 22.59L5.21 24.46L3.34 24.5ZM21.58 18.13L20.35 18.16H20.21V18.06L20.19 17.97C20.07 17.03 19.69 16.13 19.11 15.43L18.99 15.29L19.99 14.29C20.17 14.11 20.17 13.8 19.98 13.61C19.9 13.52 19.77 13.47 19.64 13.47C19.51 13.47 19.39 13.51 19.3 13.6L18.36 14.59L18.21 14.48C17.46 13.87 16.57 13.51 15.65 13.42H15.47V12.02C15.47 11.75 15.25 11.53 14.98 11.53C14.71 11.53 14.48 11.75 14.48 12.01L14.52 13.36L14.33 13.38C13.39 13.48 12.46 13.88 11.78 14.46L11.64 14.59L10.66 13.61C10.56 13.52 10.44 13.47 10.31 13.47C10.18 13.47 10.06 13.51 9.97 13.6C9.88 13.7 9.83 13.82 9.83 13.96C9.82 14.08 9.87 14.21 9.96 14.29L10.96 15.24L10.85 15.39C10.29 16.15 9.92 17.06 9.82 17.95L9.8 18.13H8.38C8.11 18.13 7.89 18.35 7.89 18.62C7.89 18.89 8.11 19.11 8.38 19.11L9.74 19.08L9.76 19.26C9.87 20.22 10.26 21.15 10.83 21.82L10.96 21.96L9.97 22.93C9.78 23.12 9.78 23.43 9.97 23.62C10.06 23.71 10.18 23.77 10.32 23.77C10.45 23.77 10.57 23.72 10.66 23.63L11.59 22.66L11.74 22.77C11.88 22.88 12.03 22.99 12.19 23.08C12.28 23.14 12.36 23.19 12.45 23.23C12.49 23.25 12.52 23.27 12.56 23.29C12.6 23.31 12.64 23.33 12.69 23.35C12.82 23.42 12.96 23.48 13.1 23.53C13.14 23.54 13.17 23.55 13.2 23.56C13.35 23.61 13.51 23.66 13.67 23.69C13.88 23.74 14.09 23.77 14.3 23.79H14.49V25.21C14.49 25.28 14.5 25.34 14.53 25.4C14.55 25.45 14.57 25.49 14.6 25.52C14.63 25.56 14.67 25.59 14.71 25.62C14.79 25.67 14.88 25.7 14.98 25.7H14.99C15.25 25.7 15.46 25.48 15.46 25.22V24.8L15.43 24.02V23.84L15.61 23.83C15.75 23.81 15.9 23.79 16.04 23.76C16.1 23.75 16.15 23.74 16.21 23.73C16.35 23.7 16.49 23.66 16.63 23.62C17.2 23.43 17.72 23.15 18.17 22.78L18.31 22.67L19.3 23.64C19.39 23.73 19.51 23.78 19.64 23.78C19.77 23.78 19.89 23.73 19.98 23.64C20.07 23.54 20.12 23.42 20.12 23.29C20.12 23.16 20.07 23.04 19.98 22.95L18.99 22.01L19.1 21.87C19.48 21.38 19.76 20.85 19.95 20.3C20.05 19.97 20.13 19.64 20.16 19.3V19.11H21.58C21.85 19.11 22.07 18.89 22.07 18.62C22.07 18.35 21.85 18.13 21.58 18.13ZM14.98 22.87H14.88C14.39 22.87 13.9 22.78 13.45 22.61C13.11 22.48 12.78 22.31 12.49 22.1C12.33 21.99 12.19 21.87 12.05 21.73C11.21 20.92 10.72 19.8 10.72 18.65C10.72 17.5 11.16 16.42 11.96 15.61C12.77 14.78 13.84 14.33 14.98 14.33H15.19C17.45 14.48 18.71 15.94 19.1 17.55C19.13 17.69 19.16 17.82 19.18 17.96C19.21 18.19 19.23 18.42 19.23 18.65C19.23 20.64 17.9 22.81 14.98 22.87ZM27.5 11.66C27.4 11.56 27.28 11.51 27.15 11.51H24.33C24.06 11.51 23.84 11.73 23.84 12V14.82C23.84 15.07 24.02 15.27 24.25 15.31H27.15C27.28 15.31 27.4 15.26 27.5 15.16C27.59 15.07 27.64 14.95 27.64 14.82V12C27.64 11.87 27.59 11.75 27.5 11.66ZM24.83 14.38V12.51L26.66 12.47L26.7 14.34L24.83 14.38ZM27.15 16.57H24.33C24.06 16.57 23.84 16.79 23.84 17.07V19.89C23.84 20.13 24.02 20.33 24.25 20.37H27.15C27.28 20.37 27.4 20.32 27.5 20.23C27.59 20.13 27.64 20.01 27.64 19.88V17.07C27.64 16.79 27.42 16.57 27.15 16.57ZM24.83 19.44V17.57L26.66 17.53L26.7 19.4L24.83 19.44ZM27.15 21.64H24.33C24.06 21.64 23.84 21.86 23.84 22.13V24.95C23.84 25.22 24.06 25.44 24.33 25.44H27.15C27.28 25.44 27.4 25.39 27.5 25.3C27.59 25.2 27.64 25.08 27.64 24.95V22.13C27.64 21.86 27.42 21.64 27.15 21.64ZM24.83 24.5V22.64L26.66 22.59L26.7 24.46L24.83 24.5ZM27.15 21.64H24.33C24.06 21.64 23.84 21.86 23.84 22.13V24.95C23.84 25.22 24.06 25.44 24.33 25.44H27.15C27.28 25.44 27.4 25.39 27.5 25.3C27.59 25.2 27.64 25.08 27.64 24.95V22.13C27.64 21.86 27.42 21.64 27.15 21.64ZM24.83 24.5V22.64L26.66 22.59L26.7 24.46L24.83 24.5ZM27.15 16.57H24.33C24.06 16.57 23.84 16.79 23.84 17.07V19.89C23.84 20.13 24.02 20.33 24.25 20.37H27.15C27.28 20.37 27.4 20.32 27.5 20.23C27.59 20.13 27.64 20.01 27.64 19.88V17.07C27.64 16.79 27.42 16.57 27.15 16.57ZM24.83 19.44V17.57L26.66 17.53L26.7 19.4L24.83 19.44ZM27.5 11.66C27.4 11.56 27.28 11.51 27.15 11.51H24.33C24.06 11.51 23.84 11.73 23.84 12V14.82C23.84 15.07 24.02 15.27 24.25 15.31H27.15C27.28 15.31 27.4 15.26 27.5 15.16C27.59 15.07 27.64 14.95 27.64 14.82V12C27.64 11.87 27.59 11.75 27.5 11.66ZM24.83 14.38V12.51L26.66 12.47L26.7 14.34L24.83 14.38ZM21.58 18.13L20.35 18.16H20.21V18.06L20.19 17.97C20.07 17.03 19.69 16.13 19.11 15.43L18.99 15.29L19.99 14.29C20.17 14.11 20.17 13.8 19.98 13.61C19.9 13.52 19.77 13.47 19.64 13.47C19.51 13.47 19.39 13.51 19.3 13.6L18.36 14.59L18.21 14.48C17.46 13.87 16.57 13.51 15.65 13.42H15.47V12.02C15.47 11.75 15.25 11.53 14.98 11.53C14.71 11.53 14.48 11.75 14.48 12.01L14.52 13.36L14.33 13.38C13.39 13.48 12.46 13.88 11.78 14.46L11.64 14.59L10.66 13.61C10.56 13.52 10.44 13.47 10.31 13.47C10.18 13.47 10.06 13.51 9.97 13.6C9.88 13.7 9.83 13.82 9.83 13.96C9.82 14.08 9.87 14.21 9.96 14.29L10.96 15.24L10.85 15.39C10.29 16.15 9.92 17.06 9.82 17.95L9.8 18.13H8.38C8.11 18.13 7.89 18.35 7.89 18.62C7.89 18.89 8.11 19.11 8.38 19.11L9.74 19.08L9.76 19.26C9.87 20.22 10.26 21.15 10.83 21.82L10.96 21.96L9.97 22.93C9.78 23.12 9.78 23.43 9.97 23.62C10.06 23.71 10.18 23.77 10.32 23.77C10.45 23.77 10.57 23.72 10.66 23.63L11.59 22.66L11.74 22.77C11.88 22.88 12.03 22.99 12.19 23.08C12.28 23.14 12.36 23.19 12.45 23.23C12.49 23.25 12.52 23.27 12.56 23.28C12.56 23.28 12.64 23.33 12.69 23.35C12.82 23.42 12.96 23.48 13.1 23.53C13.14 23.54 13.17 23.55 13.2 23.56C13.35 23.61 13.51 23.66 13.67 23.69C13.88 23.74 14.09 23.77 14.3 23.79H14.49V25.21C14.49 25.28 14.5 25.34 14.53 25.4C14.55 25.45 14.57 25.49 14.6 25.52C14.63 25.56 14.67 25.59 14.71 25.62C14.79 25.67 14.88 25.7 14.98 25.7H14.99C15.25 25.7 15.46 25.48 15.46 25.22V24.8L15.43 24.02V23.84L15.61 23.83C15.75 23.81 15.9 23.79 16.04 23.76C16.1 23.75 16.15 23.74 16.21 23.73C16.35 23.7 16.49 23.66 16.63 23.62C17.2 23.43 17.72 23.15 18.17 22.78L18.31 22.67L19.3 23.64C19.39 23.73 19.51 23.78 19.64 23.78C19.77 23.78 19.89 23.73 19.98 23.64C20.07 23.54 20.12 23.42 20.12 23.29C20.12 23.16 20.07 23.04 19.98 22.95L18.99 22.01L19.1 21.87C19.48 21.38 19.76 20.85 19.95 20.3C20.05 19.97 20.13 19.64 20.16 19.3V19.11H21.58C21.85 19.11 22.07 18.89 22.07 18.62C22.07 18.35 21.85 18.13 21.58 18.13ZM14.98 22.87H14.88C14.39 22.87 13.9 22.78 13.45 22.61C13.11 22.48 12.78 22.31 12.49 22.1C12.33 21.99 12.19 21.87 12.05 21.73C11.21 20.92 10.72 19.8 10.72 18.65C10.72 17.5 11.16 16.42 11.96 15.61C12.77 14.78 13.84 14.33 14.98 14.33H15.19C17.45 14.48 18.71 15.94 19.1 17.55C19.13 17.69 19.16 17.82 19.18 17.96C19.21 18.19 19.23 18.42 19.23 18.65C19.23 20.64 17.9 22.81 14.98 22.87ZM5.66 21.64H2.84C2.57 21.64 2.35 21.86 2.35 22.13V24.95C2.35 25.22 2.57 25.44 2.84 25.44H5.66C5.93 25.44 6.15 25.22 6.15 24.95V22.13C6.15 21.86 5.93 21.64 5.66 21.64ZM3.34 24.5V22.64L5.17 22.59L5.21 24.46L3.34 24.5ZM5.66 16.57H2.84C2.57 16.57 2.35 16.79 2.35 17.07V19.89C2.35 20.13 2.53 20.33 2.76 20.37H5.66C5.93 20.37 6.15 20.15 6.15 19.88V17.07C6.15 16.79 5.93 16.57 5.66 16.57ZM3.34 19.44V17.57L5.17 17.53L5.21 19.4L3.34 19.44ZM6.01 11.66C5.91 11.56 5.79 11.51 5.66 11.51H2.84C2.57 11.51 2.35 11.73 2.35 12V14.82C2.35 15.07 2.53 15.27 2.76 15.31H5.66C5.93 15.31 6.15 15.09 6.15 14.82V12C6.15 11.87 6.1 11.75 6.01 11.66ZM3.34 14.38V12.51L5.17 12.47L5.21 14.34L3.34 14.38ZM6.01 11.66C5.91 11.56 5.79 11.51 5.66 11.51H2.84C2.57 11.51 2.35 11.73 2.35 12V14.82C2.35 15.07 2.53 15.27 2.76 15.31H5.66C5.93 15.31 6.15 15.09 6.15 14.82V12C6.15 11.87 6.1 11.75 6.01 11.66ZM3.34 14.38V12.51L5.17 12.47L5.21 14.34L3.34 14.38ZM5.66 16.57H2.84C2.57 16.57 2.35 16.79 2.35 17.07V19.89C2.35 20.13 2.53 20.33 2.76 20.37H5.66C5.93 20.37 6.15 20.15 6.15 19.88V17.07C6.15 16.79 5.93 16.57 5.66 16.57ZM3.34 19.44V17.57L5.17 17.53L5.21 19.4L3.34 19.44ZM5.66 21.64H2.84C2.57 21.64 2.35 21.86 2.35 22.13V24.95C2.35 25.22 2.57 25.44 2.84 25.44H5.66C5.93 25.44 6.15 25.22 6.15 24.95V22.13C6.15 21.86 5.93 21.64 5.66 21.64ZM3.34 24.5V22.64L5.17 22.59L5.21 24.46L3.34 24.5ZM21.58 18.13L20.35 18.16H20.21V18.06L20.19 17.97C20.07 17.03 19.69 16.13 19.11 15.43L18.99 15.29L19.99 14.29C20.17 14.11 20.17 13.8 19.98 13.61C19.9 13.52 19.77 13.47 19.64 13.47C19.51 13.47 19.39 13.51 19.3 13.6L18.36 14.59L18.21 14.48C17.46 13.87 16.57 13.51 15.65 13.42H15.47V12.02C15.47 11.75 15.25 11.53 14.98 11.53C14.71 11.53 14.48 11.75 14.48 12.01L14.52 13.36L14.33 13.38C13.39 13.48 12.46 13.88 11.78 14.46L11.64 14.59L10.66 13.61C10.56 13.52 10.44 13.47 10.31 13.47C10.18 13.47 10.06 13.51 9.97 13.6C9.88 13.7 9.83 13.82 9.83 13.96C9.82 14.08 9.87 14.21 9.96 14.29L10.96 15.24L10.85 15.39C10.29 16.15 9.92 17.06 9.82 17.95L9.8 18.13H8.38C8.11 18.13 7.89 18.35 7.89 18.62C7.89 18.89 8.11 19.11 8.38 19.11L9.74 19.08L9.76 19.26C9.87 20.22 10.26 21.15 10.83 21.82L10.96 21.96L9.97 22.93C9.78 23.12 9.78 23.43 9.97 23.62C10.06 23.71 10.18 23.77 10.32 23.77C10.45 23.77 10.57 23.72 10.66 23.63L11.59 22.66L11.74 22.77C11.88 22.88 12.03 22.99 12.19 23.08C12.28 23.14 12.36 23.19 12.45 23.23C12.49 23.25 12.52 23.27 12.56 23.28C12.56 23.28 12.64 23.33 12.69 23.35C12.82 23.42 12.96 23.48 13.1 23.53C13.14 23.54 13.17 23.55 13.2 23.56C13.35 23.61 13.51 23.66 13.67 23.69C13.88 23.74 14.09 23.77 14.3 23.79H14.49V25.21C14.49 25.28 14.5 25.34 14.53 25.4C14.55 25.45 14.57 25.49 14.6 25.52C14.63 25.56 14.67 25.59 14.71 25.62C14.79 25.67 14.88 25.7 14.98 25.7H14.99C15.25 25.7 15.46 25.48 15.46 25.22V24.8L15.43 24.02V23.84L15.61 23.83C15.75 23.81 15.9 23.79 16.04 23.76C16.1 23.75 16.15 23.74 16.21 23.73C16.35 23.7 16.49 23.66 16.63 23.62C17.2 23.43 17.72 23.15 18.17 22.78L18.31 22.67L19.3 23.64C19.39 23.73 19.51 23.78 19.64 23.78C19.77 23.78 19.89 23.73 19.98 23.64C20.07 23.54 20.12 23.42 20.12 23.29C20.12 23.16 20.07 23.04 19.98 22.95L18.99 22.01L19.1 21.87C19.48 21.38 19.76 20.85 19.95 20.3C20.05 19.97 20.13 19.64 20.16 19.3V19.11H21.58C21.85 19.11 22.07 18.89 22.07 18.62C22.07 18.35 21.85 18.13 21.58 18.13ZM14.98 22.87H14.88C14.39 22.87 13.9 22.78 13.45 22.61C13.11 22.48 12.78 22.31 12.49 22.1C12.33 21.99 12.19 21.87 12.05 21.73C11.21 20.92 10.72 19.8 10.72 18.65C10.72 17.5 11.16 16.42 11.96 15.61C12.77 14.78 13.84 14.33 14.98 14.33H15.19C17.45 14.48 18.71 15.94 19.1 17.55C19.13 17.69 19.16 17.82 19.18 17.96C19.21 18.19 19.23 18.42 19.23 18.65C19.23 20.64 17.9 22.81 14.98 22.87ZM27.5 11.66C27.4 11.56 27.28 11.51 27.15 11.51H24.33C24.06 11.51 23.84 11.73 23.84 12V14.82C23.84 15.07 24.02 15.27 24.25 15.31H27.15C27.28 15.31 27.4 15.26 27.5 15.16C27.59 15.07 27.64 14.95 27.64 14.82V12C27.64 11.87 27.59 11.75 27.5 11.66ZM24.83 14.38V12.51L26.66 12.47L26.7 14.34L24.83 14.38ZM27.15 16.57H24.33C24.06 16.57 23.84 16.79 23.84 17.07V19.89C23.84 20.13 24.02 20.33 24.25 20.37H27.15C27.28 20.37 27.4 20.32 27.5 20.23C27.59 20.13 27.64 20.01 27.64 19.88V17.07C27.64 16.79 27.42 16.57 27.15 16.57ZM24.83 19.44V17.57L26.66 17.53L26.7 19.4L24.83 19.44ZM27.15 21.64H24.33C24.06 21.64 23.84 21.86 23.84 22.13V24.95C23.84 25.22 24.06 25.44 24.33 25.44H27.15C27.28 25.44 27.4 25.39 27.5 25.3C27.59 25.2 27.64 25.08 27.64 24.95V22.13C27.64 21.86 27.42 21.64 27.15 21.64ZM24.83 24.5V22.64L26.66 22.59L26.7 24.46L24.83 24.5ZM27.15 21.64H24.33C24.06 21.64 23.84 21.86 23.84 22.13V24.95C23.84 25.22 24.06 25.44 24.33 25.44H27.15C27.28 25.44 27.4 25.39 27.5 25.3C27.59 25.2 27.64 25.08 27.64 24.95V22.13C27.64 21.86 27.42 21.64 27.15 21.64ZM24.83 24.5V22.64L26.66 22.59L26.7 24.46L24.83 24.5ZM27.15 16.57H24.33C24.06 16.57 23.84 16.79 23.84 17.07V19.89C23.84 20.13 24.02 20.33 24.25 20.37H27.15C27.28 20.37 27.4 20.32 27.5 20.23C27.59 20.13 27.64 20.01 27.64 19.88V17.07C27.64 16.79 27.42 16.57 27.15 16.57ZM24.83 19.44V17.57L26.66 17.53L26.7 19.4L24.83 19.44ZM27.5 11.66C27.4 11.56 27.28 11.51 27.15 11.51H24.33C24.06 11.51 23.84 11.73 23.84 12V14.82C23.84 15.07 24.02 15.27 24.25 15.31H27.15C27.28 15.31 27.4 15.26 27.5 15.16C27.59 15.07 27.64 14.95 27.64 14.82V12C27.64 11.87 27.59 11.75 27.5 11.66ZM24.83 14.38V12.51L26.66 12.47L26.7 14.34L24.83 14.38ZM5.66 21.64H2.84C2.57 21.64 2.35 21.86 2.35 22.13V24.95C2.35 25.22 2.57 25.44 2.84 25.44H5.66C5.93 25.44 6.15 25.22 6.15 24.95V22.13C6.15 21.86 5.93 21.64 5.66 21.64ZM3.34 24.5V22.64L5.17 22.59L5.21 24.46L3.34 24.5ZM5.66 16.57H2.84C2.57 16.57 2.35 16.79 2.35 17.07V19.89C2.35 20.13 2.53 20.33 2.76 20.37H5.66C5.93 20.37 6.15 20.15 6.15 19.88V17.07C6.15 16.79 5.93 16.57 5.66 16.57ZM3.34 19.44V17.57L5.17 17.53L5.21 19.4L3.34 19.44ZM6.01 11.66C5.91 11.56 5.79 11.51 5.66 11.51H2.84C2.57 11.51 2.35 11.73 2.35 12V14.82C2.35 15.07 2.53 15.27 2.76 15.31H5.66C5.93 15.31 6.15 15.09 6.15 14.82V12C6.15 11.87 6.1 11.75 6.01 11.66ZM3.34 14.38V12.51L5.17 12.47L5.21 14.34L3.34 14.38ZM21.58 18.13L20.35 18.16H20.21V18.06L20.19 17.97C20.07 17.03 19.69 16.13 19.11 15.43L18.99 15.29L19.99 14.29C20.17 14.11 20.17 13.8 19.98 13.61C19.9 13.52 19.77 13.47 19.64 13.47C19.51 13.47 19.39 13.51 19.3 13.6L18.36 14.59L18.21 14.48C17.46 13.87 16.57 13.51 15.65 13.42H15.47V12.02C15.47 11.75 15.25 11.53 14.98 11.53C14.71 11.53 14.48 11.75 14.48 12.01L14.52 13.36L14.33 13.38C13.39 13.48 12.46 13.88 11.78 14.46L11.64 14.59L10.66 13.61C10.56 13.52 10.44 13.47 10.31 13.47C10.18 13.47 10.06 13.51 9.97 13.6C9.88 13.7 9.83 13.82 9.83 13.96C9.82 14.08 9.87 14.21 9.96 14.29L10.96 15.24L10.85 15.39C10.29 16.15 9.92 17.06 9.82 17.95L9.8 18.13H8.38C8.11 18.13 7.89 18.35 7.89 18.62C7.89 18.89 8.11 19.11 8.38 19.11L9.74 19.08L9.76 19.26C9.87 20.22 10.26 21.15 10.83 21.82L10.96 21.96L9.97 22.93C9.78 23.12 9.78 23.43 9.97 23.62C10.06 23.71 10.18 23.77 10.32 23.77C10.45 23.77 10.57 23.72 10.66 23.63L11.59 22.66L11.74 22.77C11.88 22.88 12.03 22.99 12.19 23.08C12.28 23.14 12.36 23.19 12.45 23.23C12.49 23.25 12.52 23.27 12.56 23.29C12.6 23.31 12.64 23.33 12.69 23.35C12.82 23.42 12.96 23.48 13.1 23.53C13.14 23.54 13.17 23.55 13.2 23.56C13.35 23.61 13.51 23.66 13.67 23.69C13.88 23.74 14.09 23.77 14.3 23.79H14.49V25.21C14.49 25.28 14.5 25.34 14.53 25.4C14.55 25.45 14.57 25.49 14.6 25.52C14.63 25.56 14.67 25.59 14.71 25.62C14.79 25.67 14.88 25.7 14.98 25.7H14.99C15.25 25.7 15.46 25.48 15.46 25.22V24.8L15.43 24.02V23.84L15.61 23.83C15.75 23.81 15.9 23.79 16.04 23.76C16.1 23.75 16.15 23.74 16.21 23.73C16.35 23.7 16.49 23.66 16.63 23.62C17.2 23.43 17.72 23.15 18.17 22.78L18.31 22.67L19.3 23.64C19.39 23.73 19.51 23.78 19.64 23.78C19.77 23.78 19.89 23.73 19.98 23.64C20.07 23.54 20.12 23.42 20.12 23.29C20.12 23.16 20.07 23.04 19.98 22.95L18.99 22.01L19.1 21.87C19.48 21.38 19.76 20.85 19.95 20.3C20.05 19.97 20.13 19.64 20.16 19.3V19.11H21.58C21.85 19.11 22.07 18.89 22.07 18.62C22.07 18.35 21.85 18.13 21.58 18.13ZM14.98 22.87H14.88C14.39 22.87 13.9 22.78 13.45 22.61C13.11 22.48 12.78 22.31 12.49 22.1C12.33 21.99 12.19 21.87 12.05 21.73C11.21 20.92 10.72 19.8 10.72 18.65C10.72 17.5 11.16 16.42 11.96 15.61C12.77 14.78 13.84 14.33 14.98 14.33H15.19C17.45 14.48 18.71 15.94 19.1 17.55C19.13 17.69 19.16 17.82 19.18 17.96C19.21 18.19 19.23 18.42 19.23 18.65C19.23 20.64 17.9 22.81 14.98 22.87Z" fill="#22577A"/>
</svg>
