<svg width="43" height="43" viewBox="0 0 43 43" fill="none" xmlns="http://www.w3.org/2000/svg">
<path d="M34.713 30.7029V38.0659C34.713 38.9552 35.0663 39.808 35.6951 40.4368C36.3239 41.0656 37.1767 41.4189 38.066 41.4189C38.9553 41.4189 39.8081 41.0656 40.437 40.4368C41.0658 39.808 41.419 38.9552 41.419 38.0659V30.7029H34.713Z" fill="#E1E6E9"/>
<path d="M38.066 42.0758C37.5384 42.0793 37.0154 41.9779 36.5274 41.7776C36.0393 41.5773 35.5958 41.2821 35.2228 40.909C34.8497 40.536 34.5545 40.0925 34.3542 39.6045C34.1539 39.1164 34.0525 38.5934 34.056 38.0658V30.7028C34.0507 30.6151 34.0642 30.5272 34.0954 30.4451C34.1266 30.3629 34.1749 30.2883 34.2371 30.2262C34.2993 30.1641 34.374 30.1159 34.4562 30.0848C34.5384 30.0538 34.6263 30.0405 34.714 30.0458H41.42C41.5077 30.0405 41.5956 30.0538 41.6778 30.0848C41.76 30.1159 41.8347 30.1641 41.8969 30.2262C41.9591 30.2883 42.0074 30.3629 42.0386 30.4451C42.0698 30.5272 42.0832 30.6151 42.078 30.7028V38.0658C42.0813 38.5935 41.9798 39.1166 41.7793 39.6048C41.5789 40.0929 41.2834 40.5364 40.9102 40.9095C40.537 41.2825 40.0933 41.5777 39.6051 41.7779C39.1168 41.9782 38.5937 42.0794 38.066 42.0758ZM35.366 31.3598V38.0658C35.3448 38.4329 35.3988 38.8005 35.5246 39.1459C35.6505 39.4914 35.8456 39.8075 36.098 40.0749C36.3504 40.3423 36.6547 40.5554 36.9924 40.701C37.33 40.8466 37.6938 40.9217 38.0615 40.9217C38.4292 40.9217 38.793 40.8466 39.1306 40.701C39.4683 40.5554 39.7726 40.3423 40.025 40.0749C40.2774 39.8075 40.4725 39.4914 40.5984 39.1459C40.7242 38.8005 40.7782 38.4329 40.757 38.0658V31.3598H35.366Z" fill="#193651"/>
<path d="M34.714 38.066V0.656982H10.651V38.066C10.6547 38.9541 11.0091 39.8048 11.6371 40.4328C12.2651 41.0609 13.1159 41.4153 14.004 41.419H38.067C37.1789 41.4153 36.3281 41.0609 35.7001 40.4328C35.0721 39.8048 34.7177 38.9541 34.714 38.066Z" fill="#FDBF5E"/>
<path d="M38.066 42.0769H14.003C13.4755 42.0802 12.9525 41.9788 12.4645 41.7784C11.9765 41.5781 11.5331 41.2828 11.1601 40.9098C10.7871 40.5368 10.4918 40.0934 10.2915 39.6054C10.0911 39.1174 9.98969 38.5944 9.99301 38.0669V0.656889C9.98776 0.569242 10.0012 0.481478 10.0323 0.399389C10.0635 0.3173 10.1117 0.242753 10.1738 0.180666C10.2359 0.118579 10.3104 0.0703641 10.3925 0.0392027C10.4746 0.00804138 10.5624 -0.00535787 10.65 -0.000110853H34.713C34.8535 0.011143 34.9885 0.0597109 35.104 0.140577C35.2195 0.221443 35.3114 0.331675 35.37 0.459889C35.37 0.525889 35.436 0.591889 35.436 0.659889V38.0659C35.4314 38.4217 35.4982 38.7749 35.6322 39.1045C35.7663 39.4342 35.965 39.7336 36.2166 39.9853C36.4683 40.2369 36.7677 40.4356 37.0974 40.5697C37.427 40.7037 37.7802 40.7705 38.136 40.7659C38.2237 40.7605 38.3116 40.7738 38.3938 40.8049C38.476 40.836 38.5507 40.8842 38.6129 40.9463C38.6751 41.0084 38.7234 41.083 38.7546 41.1651C38.7858 41.2473 38.7993 41.3352 38.794 41.4229C38.7781 41.6038 38.6941 41.772 38.5589 41.8934C38.4238 42.0148 38.2476 42.0804 38.066 42.0769ZM11.308 1.31489V38.0659C11.3034 38.4217 11.3702 38.7749 11.5042 39.1045C11.6383 39.4342 11.837 39.7336 12.0886 39.9853C12.3403 40.2369 12.6397 40.4356 12.9694 40.5697C13.299 40.7037 13.6522 40.7705 14.008 40.7659H35.108C34.4279 40.0317 34.0519 39.0667 34.056 38.0659V1.31489H11.308Z" fill="#193651"/>
<path d="M32.088 38.0659V3.28687H13.215L13.281 38.0659C13.2828 38.2571 13.3596 38.4399 13.4948 38.5751C13.63 38.7103 13.8128 38.787 14.004 38.7889H32.15C32.0969 38.5518 32.076 38.3086 32.088 38.0659Z" fill="white"/>
<path d="M26.758 6.11377H25.443V7.42877H26.758V6.11377Z" fill="#193651"/>
<path d="M30.177 6.11377H28.862V7.42877H30.177V6.11377Z" fill="#193651"/>
<path d="M16.502 6.11377H15.187V7.42877H16.502V6.11377Z" fill="#193651"/>
<path d="M19.921 6.11377H18.606V7.42877H19.921V6.11377Z" fill="#193651"/>
<path d="M23.339 6.11377H22.024V7.42877H23.339V6.11377Z" fill="#193651"/>
<path d="M29.519 11.7679H15.844C15.6696 11.7679 15.5024 11.6986 15.3791 11.5753C15.2558 11.452 15.1865 11.2848 15.1865 11.1104C15.1865 10.936 15.2558 10.7688 15.3791 10.6455C15.5024 10.5221 15.6696 10.4529 15.844 10.4529H29.519C29.6934 10.4529 29.8606 10.5221 29.9839 10.6455C30.1072 10.7688 30.1765 10.936 30.1765 11.1104C30.1765 11.2848 30.1072 11.452 29.9839 11.5753C29.8606 11.6986 29.6934 11.7679 29.519 11.7679Z" fill="#E1E6E9"/>
<path d="M23.537 15.3839H15.845C15.6706 15.3839 15.5034 15.3146 15.3801 15.1913C15.2568 15.068 15.1875 14.9007 15.1875 14.7263C15.1875 14.552 15.2568 14.3847 15.3801 14.2614C15.5034 14.1381 15.6706 14.0688 15.845 14.0688H23.537C23.7114 14.0688 23.8786 14.1381 24.0019 14.2614C24.1252 14.3847 24.1945 14.552 24.1945 14.7263C24.1945 14.9007 24.1252 15.068 24.0019 15.1913C23.8786 15.3146 23.7114 15.3839 23.537 15.3839Z" fill="#E1E6E9"/>
<path d="M29.519 15.3839H26.363C26.1886 15.3839 26.0214 15.3146 25.8981 15.1913C25.7748 15.068 25.7055 14.9007 25.7055 14.7263C25.7055 14.552 25.7748 14.3847 25.8981 14.2614C26.0214 14.1381 26.1886 14.0688 26.363 14.0688H29.519C29.6934 14.0688 29.8606 14.1381 29.9839 14.2614C30.1072 14.3847 30.1765 14.552 30.1765 14.7263C30.1765 14.9007 30.1072 15.068 29.9839 15.1913C29.8606 15.3146 29.6934 15.3839 29.519 15.3839Z" fill="#193651"/>
<path d="M29.519 18.9999H15.844C15.6696 18.9999 15.5024 18.9307 15.3791 18.8074C15.2558 18.6841 15.1865 18.5168 15.1865 18.3424C15.1865 18.1681 15.2558 18.0008 15.3791 17.8775C15.5024 17.7542 15.6696 17.6849 15.844 17.6849H29.519C29.6066 17.6797 29.6944 17.6931 29.7765 17.7243C29.8586 17.7554 29.9331 17.8036 29.9952 17.8657C30.0573 17.9278 30.1055 18.0024 30.1367 18.0845C30.1678 18.1665 30.1812 18.2543 30.176 18.342C30.1757 18.5162 30.1065 18.6833 29.9833 18.8066C29.8602 18.9299 29.6933 18.9994 29.519 18.9999Z" fill="#E1E6E9"/>
<path d="M23.537 22.6159H15.845C15.6706 22.6159 15.5034 22.5466 15.3801 22.4233C15.2568 22.3 15.1875 22.1328 15.1875 21.9584C15.1875 21.784 15.2568 21.6168 15.3801 21.4935C15.5034 21.3702 15.6706 21.3009 15.845 21.3009H23.537C23.6247 21.2957 23.7124 21.3091 23.7945 21.3402C23.8766 21.3714 23.9511 21.4196 24.0132 21.4817C24.0753 21.5438 24.1235 21.6183 24.1547 21.7004C24.1859 21.7825 24.1992 21.8703 24.194 21.9579C24.1937 22.1322 24.1245 22.2992 24.0013 22.4225C23.8782 22.5459 23.7113 22.6154 23.537 22.6159Z" fill="#E1E6E9"/>
<path d="M29.519 22.616H26.363C26.1886 22.616 26.0214 22.5467 25.8981 22.4234C25.7748 22.3001 25.7055 22.1329 25.7055 21.9585C25.7055 21.7841 25.7748 21.6169 25.8981 21.4936C26.0214 21.3703 26.1886 21.301 26.363 21.301H29.519C29.6067 21.2956 29.6946 21.3089 29.7768 21.34C29.859 21.3711 29.9337 21.4192 29.9959 21.4813C30.0581 21.5435 30.1064 21.6181 30.1376 21.7002C30.1689 21.7824 30.1823 21.8702 30.177 21.958C30.1767 22.1324 30.1074 22.2996 29.984 22.423C29.8607 22.5463 29.6934 22.6157 29.519 22.616Z" fill="#193651"/>
<path d="M29.519 26.1658H15.844C15.6696 26.1658 15.5024 26.0966 15.3791 25.9733C15.2558 25.85 15.1865 25.6827 15.1865 25.5083C15.1865 25.334 15.2558 25.1667 15.3791 25.0434C15.5024 24.9201 15.6696 24.8508 15.844 24.8508H29.519C29.6934 24.8508 29.8606 24.9201 29.9839 25.0434C30.1072 25.1667 30.1765 25.334 30.1765 25.5083C30.1765 25.6827 30.1072 25.85 29.9839 25.9733C29.8606 26.0966 29.6934 26.1658 29.519 26.1658Z" fill="#E1E6E9"/>
<path d="M23.537 29.7818H15.845C15.6706 29.7818 15.5034 29.7125 15.3801 29.5892C15.2568 29.4659 15.1875 29.2987 15.1875 29.1243C15.1875 28.9499 15.2568 28.7827 15.3801 28.6594C15.5034 28.5361 15.6706 28.4668 15.845 28.4668H23.537C23.7114 28.4668 23.8786 28.5361 24.0019 28.6594C24.1252 28.7827 24.1945 28.9499 24.1945 29.1243C24.1945 29.2987 24.1252 29.4659 24.0019 29.5892C23.8786 29.7125 23.7114 29.7818 23.537 29.7818Z" fill="#E1E6E9"/>
<path d="M29.519 29.7818H26.363C26.1886 29.7818 26.0214 29.7125 25.8981 29.5892C25.7748 29.4659 25.7055 29.2987 25.7055 29.1243C25.7055 28.9499 25.7748 28.7827 25.8981 28.6594C26.0214 28.5361 26.1886 28.4668 26.363 28.4668H29.519C29.6934 28.4668 29.8606 28.5361 29.9839 28.6594C30.1072 28.7827 30.1765 28.9499 30.1765 29.1243C30.1765 29.2987 30.1072 29.4659 29.9839 29.5892C29.8606 29.7125 29.6934 29.7818 29.519 29.7818Z" fill="#193651"/>
<path d="M7.299 6.11377H0.657001V27.5468C0.654857 31.9454 1.78697 36.2703 3.944 40.1038C6.09329 36.2672 7.22486 31.9444 7.231 27.5468L7.299 6.11377Z" fill="#F16051"/>
<path d="M3.945 40.8279C3.82638 40.8285 3.70961 40.7985 3.60592 40.7409C3.50224 40.6833 3.41514 40.6 3.353 40.4989C1.18004 36.5259 0.0278829 32.0753 -4.04159e-06 27.5469V6.11392C-0.00525106 6.02627 0.00814819 5.93851 0.0393095 5.85642C0.0704709 5.77433 0.118686 5.69979 0.180773 5.6377C0.24286 5.57561 0.317407 5.5274 0.399496 5.49623C0.481585 5.46507 0.569349 5.45167 0.656996 5.45692H7.3C7.38764 5.45167 7.47541 5.46507 7.5575 5.49623C7.63959 5.5274 7.71413 5.57561 7.77622 5.6377C7.83831 5.69979 7.88652 5.77433 7.91768 5.85642C7.94884 5.93851 7.96224 6.02627 7.957 6.11392V27.5469C7.9454 32.0651 6.76738 36.5037 4.537 40.4329C4.4894 40.5506 4.40747 40.6512 4.30188 40.7217C4.19629 40.7921 4.07193 40.8292 3.945 40.8279ZM1.315 6.76992V27.5469C1.32628 31.4246 2.22597 35.2481 3.945 38.7239C5.65692 35.2455 6.55622 31.4237 6.575 27.5469V6.76992H1.315Z" fill="#193651"/>
<path d="M3.944 34.9769C3.15744 32.6019 2.758 30.1158 2.761 27.6139V8.08691H5.128V27.5469C5.12578 30.0704 4.72622 32.5777 3.944 34.9769Z" fill="white"/>
<path d="M6.17999 0.656982H1.77499V6.11398H6.17999V0.656982Z" fill="#E1E6E9"/>
<path d="M6.11499 6.77189H1.77499C1.68734 6.77714 1.59958 6.76374 1.51749 6.73258C1.4354 6.70141 1.36086 6.6532 1.29877 6.59111C1.23668 6.52903 1.18847 6.45448 1.15731 6.37239C1.12614 6.2903 1.11275 6.20254 1.11799 6.11489V0.656889C1.11275 0.569242 1.12614 0.481478 1.15731 0.399389C1.18847 0.3173 1.23668 0.242753 1.29877 0.180666C1.36086 0.118579 1.4354 0.0703641 1.51749 0.0392027C1.59958 0.00804138 1.68734 -0.00535787 1.77499 -0.000110853H6.17499C6.26264 -0.00535787 6.3504 0.00804138 6.43249 0.0392027C6.51458 0.0703641 6.58913 0.118579 6.65121 0.180666C6.7133 0.242753 6.76152 0.3173 6.79268 0.399389C6.82384 0.481478 6.83724 0.569242 6.83199 0.656889V6.11389C6.81715 6.29364 6.73511 6.4612 6.60222 6.58316C6.46933 6.70511 6.29536 6.7725 6.11499 6.77189ZM2.43099 5.45689H5.52099V1.31489H2.43099V5.45689Z" fill="#193651"/>
<path d="M19.001 35.765L18.607 36.6849H17.884L19.724 32.5439H20.447L22.288 36.6859H21.565L21.17 35.7659L19.001 35.765ZM20.842 35.1079L20.119 33.399L19.396 35.1079H20.842Z" fill="#193651"/>
<path d="M23.666 35.8308V34.7138H22.548V34.1878H23.666V33.0698H24.192V34.1878H25.31V34.7138H24.192V35.8318L23.666 35.8308Z" fill="#193651"/>
<path d="M3.94499 42.077C3.85725 42.0822 3.7694 42.0688 3.68724 42.0376C3.60508 42.0063 3.53048 41.958 3.46837 41.8958C3.40627 41.8336 3.35808 41.759 3.32698 41.6768C3.29589 41.5945 3.2826 41.5067 3.28799 41.4189V40.17C3.28799 39.9956 3.35726 39.8284 3.48057 39.705C3.60387 39.5817 3.77111 39.5125 3.94549 39.5125C4.11987 39.5125 4.28711 39.5817 4.41042 39.705C4.53372 39.8284 4.60299 39.9956 4.60299 40.17V41.4189C4.6084 41.5068 4.59508 41.5947 4.56393 41.677C4.53278 41.7593 4.48449 41.834 4.42228 41.8962C4.36006 41.9585 4.28534 42.0067 4.20306 42.0379C4.12077 42.0691 4.03281 42.0824 3.94499 42.077Z" fill="#193651"/>
</svg>
