<svg width="64" height="40" viewBox="0 0 64 40" fill="none" xmlns="http://www.w3.org/2000/svg">
<path d="M62.8448 5.11328H0.998779V39.084H62.8448V5.11328Z" fill="#FDBF5E"/>
<path d="M62.8463 39.9776H0.998765C0.865747 39.9847 0.732549 39.9665 0.607964 39.9241C0.483378 39.8817 0.370238 39.8162 0.27601 39.7317C0.181783 39.6473 0.108612 39.5459 0.0613252 39.4342C0.014039 39.3226 -0.00628667 39.2032 0.0016898 39.084V5.11873C-0.00628667 4.99952 0.014039 4.88014 0.0613252 4.76848C0.108612 4.65683 0.181783 4.55544 0.27601 4.47099C0.370238 4.38654 0.483378 4.32096 0.607964 4.27859C0.732549 4.23621 0.865747 4.218 0.998765 4.22515H62.8448C62.9778 4.218 63.111 4.23621 63.2356 4.27859C63.3602 4.32096 63.4733 4.38654 63.5676 4.47099C63.6618 4.55544 63.735 4.65683 63.7823 4.76848C63.8295 4.88014 63.8499 4.99952 63.8419 5.11873V39.0895C63.849 39.2081 63.828 39.3267 63.7804 39.4376C63.7328 39.5485 63.6596 39.6492 63.5657 39.733C63.4717 39.8168 63.3591 39.8819 63.2351 39.9241C63.1112 39.9662 62.9787 39.9844 62.8463 39.9776V39.9776ZM1.99736 38.1891H61.8493V6.00684H1.99736V38.1891Z" fill="#193651"/>
<path d="M36.4118 1.44775C33.9176 1.44775 31.9234 4.12983 31.9234 6.36513V39.084C31.9234 36.8487 33.9191 34.1667 36.4118 34.1667H58.0586V1.44775H36.4118Z" fill="white"/>
<path d="M31.9217 39.9788C31.7887 39.9859 31.6555 39.9677 31.5309 39.9253C31.4063 39.883 31.2932 39.8174 31.199 39.7329C31.1048 39.6485 31.0316 39.5471 30.9843 39.4354C30.937 39.3238 30.9167 39.2044 30.9247 39.0852V6.36494C30.9247 3.68286 33.3186 0.554005 36.4116 0.554005H58.0585C58.1915 0.546857 58.3247 0.565065 58.4493 0.607443C58.5739 0.64982 58.687 0.715402 58.7812 0.799848C58.8755 0.884293 58.9486 0.985688 58.9959 1.09734C59.0432 1.20899 59.0635 1.32835 59.0556 1.44756V34.1665C59.0635 34.2857 59.0432 34.4051 58.9959 34.5167C58.9486 34.6284 58.8755 34.7298 58.7812 34.8142C58.687 34.8987 58.5739 34.9642 58.4493 35.0066C58.3247 35.049 58.1915 35.0672 58.0585 35.0601H36.4116C34.5163 35.0601 32.9158 37.2954 32.9158 39.0825C32.9242 39.2017 32.9042 39.3211 32.8573 39.4329C32.8104 39.5447 32.7376 39.6463 32.6437 39.731C32.5497 39.8157 32.4368 39.8816 32.3124 39.9243C32.1879 39.967 32.0548 39.9856 31.9217 39.9788V39.9788ZM36.4101 2.34252C34.5147 2.34252 32.9142 4.57779 32.9142 6.36494V34.7931C33.35 34.3389 33.885 33.9697 34.4863 33.7082C35.0876 33.4467 35.7424 33.2986 36.4101 33.2729H57.0584V2.34252H36.4101Z" fill="#193651"/>
<path d="M35.9131 5.47023C35.9091 5.41063 35.9193 5.35095 35.943 5.29512C35.9666 5.23929 36.0032 5.18861 36.0503 5.14638C36.0974 5.10416 36.154 5.07136 36.2163 5.05017C36.2786 5.02898 36.3452 5.01989 36.4117 5.02346H54.0748V30.5911H35.9131V5.47023Z" fill="#E1E6E9"/>
<path d="M27.435 1.44775C29.9292 1.44775 31.9233 4.12983 31.9233 6.36513V39.084C31.9233 36.8487 29.9277 34.1667 27.435 34.1667H5.78809V1.44775H27.435Z" fill="white"/>
<path d="M31.9218 39.9788C31.7888 39.9859 31.6556 39.9677 31.531 39.9253C31.4065 39.8829 31.2933 39.8174 31.1991 39.7329C31.1049 39.6485 31.0317 39.5471 30.9844 39.4354C30.9371 39.3238 30.9168 39.2044 30.9248 39.0852C30.9248 37.2967 29.2285 35.0627 27.4289 35.0627H5.7866C5.65359 35.0699 5.52039 35.0517 5.3958 35.0093C5.27122 34.9669 5.15808 34.9014 5.06385 34.8169C4.96962 34.7325 4.89645 34.6311 4.84916 34.5194C4.80188 34.4078 4.78156 34.2884 4.78953 34.1692V1.45027C4.78156 1.33106 4.80188 1.21168 4.84916 1.10002C4.89645 0.988372 4.96962 0.886978 5.06385 0.802532C5.15808 0.718086 5.27122 0.652526 5.3958 0.610148C5.52039 0.56777 5.65359 0.549541 5.7866 0.556689H27.4335C30.525 0.556689 32.9204 3.68965 32.9204 6.36764V39.0866C32.9282 39.2058 32.9077 39.3251 32.8602 39.4367C32.8127 39.5483 32.7394 39.6496 32.645 39.7339C32.5506 39.8182 32.4374 39.8836 32.3127 39.9259C32.1881 39.9681 32.0548 39.9861 31.9218 39.9788ZM6.78368 33.2743H27.4335C28.1012 33.2999 28.756 33.4481 29.3573 33.7095C29.9585 33.971 30.4936 34.3403 30.9293 34.7944V6.36627C30.9293 4.57776 29.2331 2.34385 27.4335 2.34385H6.7852L6.78368 33.2743Z" fill="#193651"/>
<path d="M27.9333 30.5911H9.77319V5.02346H27.4333C27.4998 5.01989 27.5664 5.02898 27.6287 5.05017C27.691 5.07136 27.7476 5.10416 27.7947 5.14638C27.8418 5.18861 27.8784 5.23929 27.902 5.29512C27.9257 5.35095 27.9358 5.41063 27.9318 5.47023L27.9333 30.5911Z" fill="#E1E6E9"/>
<path d="M14.4669 24.3333H12.4712V26.1218H14.4669V24.3333Z" fill="#193651"/>
<path d="M19.8533 24.3333H17.8577V26.1218H19.8533V24.3333Z" fill="#193651"/>
<path d="M25.2402 24.3333H23.2445V26.1218H25.2402V24.3333Z" fill="#193651"/>
<path d="M50.8755 7.88379H39.1051V9.6723H50.8755V7.88379Z" fill="#193651"/>
<path d="M50.8755 12.1748H39.1051V13.9633H50.8755V12.1748Z" fill="#193651"/>
<path d="M50.8755 16.4668H39.1051V18.2553H50.8755V16.4668Z" fill="#193651"/>
<path d="M50.8755 20.7578H39.1051V22.5463H50.8755V20.7578Z" fill="#193651"/>
<path d="M50.8755 25.0483H39.1051V26.8368H50.8755V25.0483Z" fill="#193651"/>
</svg>
