<svg width="31" height="50" viewBox="0 0 31 50" fill="none" xmlns="http://www.w3.org/2000/svg">
<path d="M7.19 8.75V24.276H7.26701C12.4238 26.188 18.0952 26.188 23.252 24.276V8.75H7.19Z" fill="#E1E6E9"/>
<path d="M15.221 26.4952C12.4028 26.51 9.60493 26.0179 6.961 25.0422C6.79943 24.9923 6.65911 24.89 6.56221 24.7515C6.46531 24.6129 6.41737 24.446 6.426 24.2772V8.75116C6.41987 8.6491 6.43546 8.54691 6.47174 8.45132C6.50802 8.35573 6.56416 8.26892 6.63646 8.19663C6.70876 8.12433 6.79557 8.06819 6.89116 8.03191C6.98675 7.99563 7.08894 7.98004 7.191 7.98616H23.253C23.3551 7.98004 23.4573 7.99563 23.5528 8.03191C23.6484 8.06819 23.7352 8.12433 23.8075 8.19663C23.8798 8.26892 23.936 8.35573 23.9722 8.45132C24.0085 8.54691 24.0241 8.6491 24.018 8.75116V24.2772C24.0139 24.4339 23.9597 24.5852 23.8635 24.709C23.7672 24.8328 23.6339 24.9225 23.483 24.9652C20.8447 25.9723 18.045 26.4907 15.221 26.4952ZM7.955 23.7412C10.2894 24.5605 12.747 24.9735 15.221 24.9622C17.6957 24.9788 20.1544 24.5646 22.487 23.7382V9.51616H7.955V23.7422V23.7412Z" fill="#193651"/>
<path d="M2.44801 12.881C2.34595 12.8872 2.24374 12.8716 2.14816 12.8353C2.05257 12.799 1.96576 12.7429 1.89346 12.6706C1.82117 12.5983 1.76503 12.5115 1.72875 12.4159C1.69247 12.3203 1.67688 12.2181 1.683 12.116V7.68004C1.683 7.47715 1.7636 7.28256 1.90707 7.1391C2.05053 6.99563 2.24512 6.91504 2.44801 6.91504C2.6509 6.91504 2.84547 6.99563 2.98894 7.1391C3.1324 7.28256 3.21301 7.47715 3.21301 7.68004V12.116C3.21274 12.3188 3.13206 12.5133 2.98865 12.6567C2.84524 12.8001 2.65082 12.8808 2.44801 12.881Z" fill="#193651"/>
<path d="M15.221 1.25488L0.764999 7.14388L15.221 13.0329L29.677 7.14388L15.221 1.25488Z" fill="#E1E6E9"/>
<path d="M15.221 13.7979C15.1131 13.8091 15.0047 13.7819 14.915 13.7209L0.459006 7.83192C0.322298 7.77654 0.205409 7.68131 0.12355 7.55861C0.0416899 7.43591 -0.00135304 7.29142 6.76117e-06 7.14392C-0.011684 6.99439 0.0272092 6.84527 0.11045 6.7205C0.193691 6.59573 0.316449 6.50255 0.459006 6.45592L14.915 0.565923C15.1117 0.488768 15.3303 0.488768 15.527 0.565923L29.985 6.45592C30.1217 6.5113 30.2386 6.60654 30.3205 6.72924C30.4023 6.85194 30.4454 6.99643 30.444 7.14392C30.4557 7.29346 30.4168 7.44258 30.3336 7.56735C30.2503 7.69212 30.1276 7.7853 29.985 7.83192L15.529 13.7209C15.4355 13.7748 15.3288 13.8015 15.221 13.7979ZM2.83 7.14392L15.221 12.1919L27.612 7.14392L15.221 2.09592L2.83 7.14392Z" fill="#193651"/>
<path d="M15.221 8.74984C16.404 8.74984 17.363 8.03081 17.363 7.14384C17.363 6.25687 16.404 5.53784 15.221 5.53784C14.038 5.53784 13.079 6.25687 13.079 7.14384C13.079 8.03081 14.038 8.74984 15.221 8.74984Z" fill="white"/>
<path d="M2.448 15.4817C3.37749 15.4817 4.131 14.7282 4.131 13.7987C4.131 12.8692 3.37749 12.1157 2.448 12.1157C1.5185 12.1157 0.764999 12.8692 0.764999 13.7987C0.764999 14.7282 1.5185 15.4817 2.448 15.4817Z" fill="white"/>
<path d="M2.448 16.2459C1.80004 16.2417 1.17982 15.9824 0.721634 15.5243C0.263451 15.0661 0.00419402 14.4459 0 13.7979C0 13.1481 0.258119 12.525 0.717583 12.0655C1.17705 11.606 1.80022 11.3479 2.45 11.3479C3.09978 11.3479 3.72295 11.606 4.18241 12.0655C4.64188 12.525 4.89999 13.1481 4.89999 13.7979C4.89579 14.4465 4.63599 15.0674 4.17694 15.5257C3.7179 15.984 3.09665 16.2428 2.448 16.2459ZM2.448 12.8809C2.2055 12.884 1.9738 12.9817 1.80231 13.1532C1.63083 13.3247 1.53311 13.5564 1.53 13.7989C1.52522 13.9207 1.54568 14.0422 1.59013 14.1558C1.63457 14.2693 1.70201 14.3724 1.78823 14.4587C1.87445 14.5449 1.97757 14.6123 2.09111 14.6568C2.20465 14.7012 2.32616 14.7217 2.448 14.7169C2.69147 14.7169 2.92496 14.6202 3.09712 14.448C3.26928 14.2759 3.366 14.0424 3.366 13.7989C3.366 13.5554 3.26928 13.3219 3.09712 13.1498C2.92496 12.9776 2.69147 12.8809 2.448 12.8809Z" fill="#193651"/>
<path d="M10.784 20.758C12.1668 21.4742 13.7013 21.848 15.2585 21.848C16.8157 21.848 18.3502 21.4742 19.733 20.758C20.0007 21.5843 20.4693 22.3313 21.0967 22.932C21.7241 23.5328 22.4908 23.9684 23.328 24.2C23.328 19.381 19.733 15.481 15.297 15.481C10.861 15.481 7.26599 19.381 7.26599 24.2C8.07319 23.9272 8.80861 23.4761 9.41763 22.8803C10.0267 22.2844 10.4937 21.559 10.784 20.758Z" fill="white"/>
<path d="M23.254 24.201C22.4214 23.9591 21.6594 23.5199 21.0327 22.9207C20.406 22.3215 19.933 21.58 19.654 20.759C18.2712 21.4751 16.7367 21.8489 15.1795 21.8489C13.6223 21.8489 12.0878 21.4751 10.705 20.759C10.4373 21.5854 9.96873 22.3324 9.34131 22.9331C8.71389 23.5338 7.94721 23.9695 7.11 24.201V24.278C7.187 29.097 10.781 33.533 15.217 33.533C19.653 33.533 23.171 29.097 23.248 24.278V24.201H23.254Z" fill="#FDBF5E"/>
<path d="M23.252 34.7548L21.569 33.9138C19.8119 35.4595 17.5609 36.3275 15.221 36.3618C12.8784 36.3413 10.6228 35.4715 8.873 33.9138L7.19 34.7548C5.85877 35.4468 4.74193 36.4895 3.96012 37.7701C3.17831 39.0506 2.76125 40.5205 2.754 42.0208V48.7518H27.688V41.9448C27.6959 40.4512 27.2842 38.9855 26.5 37.7143C25.7157 36.4432 24.5904 35.4178 23.252 34.7548Z" fill="white"/>
<path d="M27.688 49.4408H2.754C2.65194 49.4469 2.54974 49.4313 2.45416 49.395C2.35857 49.3588 2.27176 49.3026 2.19946 49.2303C2.12717 49.158 2.07102 49.0712 2.03475 48.9756C1.99847 48.88 1.98288 48.7779 1.989 48.6758V41.9448C1.98035 40.3135 2.42674 38.712 3.27801 37.3204C4.12928 35.9288 5.35172 34.802 6.808 34.0668L8.491 33.2258C8.62498 33.1611 8.77403 33.1341 8.92217 33.1477C9.07032 33.1613 9.21199 33.2149 9.332 33.3028C10.9609 34.7325 13.0542 35.5209 15.2215 35.5209C17.3888 35.5209 19.4821 34.7325 21.111 33.3028C21.2225 33.198 21.3659 33.1335 21.5182 33.1196C21.6706 33.1056 21.8233 33.143 21.952 33.2258L23.635 34.0668C25.085 34.8098 26.302 35.9383 27.1522 37.3282C28.0024 38.7181 28.4529 40.3155 28.454 41.9448V48.6758C28.4537 48.8788 28.3729 49.0734 28.2293 49.2168C28.0857 49.3602 27.891 49.4408 27.688 49.4408ZM3.519 47.9108H26.919V41.9448C26.9163 40.5905 26.5447 39.2625 25.844 38.1035C25.1433 36.9446 24.14 35.9984 22.942 35.3668L21.642 34.7548C19.7998 36.2376 17.5068 37.0472 15.142 37.0498C12.8001 37.0467 10.5309 36.2361 8.717 34.7548L7.493 35.3668C6.28866 35.9907 5.28002 36.9351 4.57826 38.0958C3.87651 39.2565 3.50891 40.5885 3.516 41.9448L3.519 47.9108Z" fill="#193651"/>
<path d="M5.507 45.922V41.945C5.51489 40.9651 5.78959 40.0059 6.30159 39.1705C6.81359 38.335 7.54353 37.6548 8.41301 37.203L8.56601 37.126C10.5471 38.414 12.857 39.1045 15.22 39.115C17.5814 39.0938 19.8884 38.4042 21.874 37.126L22.027 37.203C22.8965 37.6548 23.6264 38.335 24.1384 39.1705C24.6504 40.0059 24.9251 40.9651 24.933 41.945V45.922H5.507Z" fill="#4FBF9F"/>
<path d="M11.626 41.9448H10.096V43.5508H11.626V41.9448Z" fill="#193651"/>
<path d="M15.986 41.9448H14.456V43.5508H15.986V41.9448Z" fill="#193651"/>
<path d="M20.346 41.9448H18.816V43.5508H20.346V41.9448Z" fill="#193651"/>
<path d="M15.221 34.2958C10.479 34.2958 6.50201 29.7068 6.42101 24.2758V24.1998C6.42101 18.9228 10.398 14.7158 15.221 14.7158C20.044 14.7158 24.021 18.9988 24.021 24.1998V24.2758C23.94 29.7068 19.963 34.2958 15.221 34.2958ZM7.955 24.2758C8.031 28.7888 11.397 32.7658 15.221 32.7658C19.045 32.7658 22.411 28.7888 22.487 24.2758V24.1998C22.487 19.7638 19.198 16.2458 15.221 16.2458C11.244 16.2458 7.955 19.8408 7.955 24.1998L7.19 24.2758H7.955Z" fill="#193651"/>
</svg>
